<svg xmlns="http://www.w3.org/2000/svg" width="190" height="142" viewBox="0 0 190 142">
  <g id="Group_1184019" data-name="Group 1184019" transform="translate(-180.051 -4918)">
    <rect id="Rectangle_408833" data-name="Rectangle 408833" width="190" height="142" transform="translate(180.051 4918)" fill="#fcf1ba"/>
    <g id="Group_1184018" data-name="Group 1184018" transform="translate(199.941 4929)">
      <path id="Path_1049339" data-name="Path 1049339" d="M127.84,233.025H33.717a6.105,6.105,0,0,1-6.042-6.985l10.366-71.206a4.885,4.885,0,0,1,4.834-4.181h75.807a4.885,4.885,0,0,1,4.834,4.181l10.366,71.206A6.106,6.106,0,0,1,127.84,233.025Z" transform="translate(-5.754 -115.581)" fill="#aa593d"/>
      <path id="Path_1049340" data-name="Path 1049340" d="M133.665,468.094a6.107,6.107,0,0,1-5.825,4.273H33.716a6.107,6.107,0,0,1-5.826-4.273l-.217,1.487a6.106,6.106,0,0,0,6.042,6.985h94.123a6.105,6.105,0,0,0,6.042-6.985Z" transform="translate(-5.754 -359.122)" fill="#7a402b"/>
      <path id="Path_1049341" data-name="Path 1049341" d="M196.126,53.635h6.106v-22.7a23.421,23.421,0,0,0-46.843,0v22.7h6.106v-22.7a17.316,17.316,0,0,1,34.632,0v22.7Z" transform="translate(-103.786 -5.766)" fill="#f9ef63"/>
      <path id="Path_1049342" data-name="Path 1049342" d="M155.389,187.589h6.106v4.2h-6.106Z" transform="translate(-103.786 -143.918)" fill="#f1d333"/>
      <path id="Path_1049343" data-name="Path 1049343" d="M330.376,187.589h6.106v4.2h-6.106Z" transform="translate(-238.036 -143.918)" fill="#f1d333"/>
      <path id="Path_1049344" data-name="Path 1049344" d="M146.546,223.213a6.662,6.662,0,0,1-6.662-6.662V205.625h13.325v10.926A6.663,6.663,0,0,1,146.546,223.213Z" transform="translate(-91.891 -157.756)" fill="#ffc89f"/>
      <path id="Path_1049345" data-name="Path 1049345" d="M321.533,223.213a6.662,6.662,0,0,1-6.662-6.662V205.625H328.2v10.926A6.663,6.663,0,0,1,321.533,223.213Z" transform="translate(-226.141 -157.756)" fill="#ffc89f"/>
      <path id="Path_1049346" data-name="Path 1049346" d="M146.546,241.185a6.662,6.662,0,0,1-6.662-6.662v4.2a6.662,6.662,0,1,0,13.325,0v-4.2A6.662,6.662,0,0,1,146.546,241.185Z" transform="translate(-91.891 -179.926)" fill="#f7b081"/>
      <path id="Path_1049347" data-name="Path 1049347" d="M321.533,241.185a6.662,6.662,0,0,1-6.662-6.662v4.2a6.662,6.662,0,1,0,13.325,0v-4.2A6.662,6.662,0,0,1,321.533,241.185Z" transform="translate(-226.141 -179.926)" fill="#f7b081"/>
      <g id="Group_1184017" data-name="Group 1184017" transform="translate(20.11 0)">
        <path id="Path_1049348" data-name="Path 1049348" d="M227.514,346.284l-5.4-37.075a1.749,1.749,0,1,0-3.462.5l5.4,37.075a4.4,4.4,0,0,1-4.311,4.984H149.147a1.749,1.749,0,1,0,0,3.5h70.594a7.854,7.854,0,0,0,7.773-8.987Z" transform="translate(-117.765 -236.076)"/>
        <path id="Path_1049349" data-name="Path 1049349" d="M63.067,58.8V47.869a1.749,1.749,0,0,0-1.749-1.749h-1.86v-9.3H90.59v9.3H88.73a1.749,1.749,0,0,0-1.749,1.749V58.8a8.412,8.412,0,1,0,16.823,0V47.869a1.749,1.749,0,0,0-1.749-1.749h-1.86v-9.3h12.733a3.152,3.152,0,0,1,3.1,2.683L119.989,66.7a1.749,1.749,0,0,0,3.462-.5L119.492,39a6.67,6.67,0,0,0-6.565-5.678H100.195V25.171a25.171,25.171,0,0,0-50.341,0v8.152H37.12A6.67,6.67,0,0,0,30.556,39L20.189,110.207a7.853,7.853,0,0,0,7.773,8.986H44.494a1.749,1.749,0,0,0,0-3.5H27.962a4.4,4.4,0,0,1-4.311-4.984L34.018,39.5a3.152,3.152,0,0,1,3.1-2.683H49.853v9.3h-1.86a1.749,1.749,0,0,0-1.749,1.749V58.795a8.412,8.412,0,0,0,16.824,0Zm37.238-9.177V58.8a4.913,4.913,0,1,1-9.826,0V49.619ZM53.352,25.171a21.672,21.672,0,0,1,43.344,0V46.12H94.089V25.171a19.057,19.057,0,0,0-32-14,1.749,1.749,0,1,0,2.375,2.569A15.558,15.558,0,0,1,90.59,25.171v8.152H59.458V25.171A15.412,15.412,0,0,1,60.8,18.859a1.749,1.749,0,1,0-3.2-1.424,18.886,18.886,0,0,0-1.641,7.736V46.12H53.352ZM49.743,58.8V49.619h9.826V58.8a4.913,4.913,0,1,1-9.826,0Z" transform="translate(-20.11 0)"/>
      </g>
    </g>
  </g>
</svg>
