<svg xmlns="http://www.w3.org/2000/svg" width="118" height="118" viewBox="0 0 118 118">
  <g id="Group_1184021" data-name="Group 1184021" transform="translate(-212.051 -6715)">
    <circle id="Ellipse_12145" data-name="Ellipse 12145" cx="59" cy="59" r="59" transform="translate(212.051 6715)" fill="#95c072"/>
    <g id="Briefcase_Girl" data-name="Briefcase Girl" transform="translate(228.794 6731)">
      <path id="Path_1049350" data-name="Path 1049350" d="M43,16h5.374V28.092H43Z" transform="translate(13.995 5.496)" fill="#2946ed"/>
      <path id="Path_1049351" data-name="Path 1049351" d="M17,16h5.374V28.092H17Z" transform="translate(5.064 5.496)" fill="#2946ed"/>
      <g id="Group_1184020" data-name="Group 1184020" transform="translate(3.599 33.588)">
        <path id="Path_1049352" data-name="Path 1049352" d="M15,25H25.748v5.374H15Z" transform="translate(0.779 -25)" fill="#376cfb"/>
        <path id="Path_1049353" data-name="Path 1049353" d="M41,25H51.748v5.374H41Z" transform="translate(9.71 -25)" fill="#376cfb"/>
        <path id="Path_1049354" data-name="Path 1049354" d="M14,72.117A10.749,10.749,0,0,1,3.579,58.752L9.173,36.46l1.742,7.847a8.014,8.014,0,0,0,7.87,6.313H64.963a8.014,8.014,0,0,0,7.87-6.313l1.742-7.847,5.594,22.292A10.749,10.749,0,0,1,69.744,72.117Z" transform="translate(-3.256 -21.063)" fill="#376cfb"/>
      </g>
      <path id="Path_1049355" data-name="Path 1049355" d="M17.587,53.183a8.014,8.014,0,0,1-7.87-6.313L6.837,33.906A4.031,4.031,0,0,1,10.771,29H70.582a4.031,4.031,0,0,1,3.934,4.907L71.636,46.87a8.014,8.014,0,0,1-7.87,6.313Z" transform="translate(1.54 9.962)" fill="#4294ff"/>
      <path id="Path_1049356" data-name="Path 1049356" d="M33.031,56.466A4.035,4.035,0,0,1,29,52.435v-9.4a4.031,4.031,0,0,1,8.061,0v9.4a4.035,4.035,0,0,1-4.031,4.031Z" transform="translate(9.186 13.397)" fill="#2946ed"/>
      <path id="Path_1049357" data-name="Path 1049357" d="M50.931,21.153A12.1,12.1,0,0,0,38.84,9.061H36.153A12.1,12.1,0,0,0,24.061,21.153H16A20.175,20.175,0,0,1,36.153,1H38.84A20.175,20.175,0,0,1,58.992,21.153Z" transform="translate(4.721 0.344)" fill="#376cfb"/>
      <circle id="Ellipse_12187" data-name="Ellipse 12187" cx="4.031" cy="4.031" r="4.031" transform="translate(38.186 52.397)" fill="#376cfb"/>
      <path id="Path_1049358" data-name="Path 1049358" d="M81.81,70.951,76.3,48.971l1.061-4.81a5.371,5.371,0,0,0-5.24-6.543H66.4V33.588a1.347,1.347,0,0,0-1.344-1.344H63.713v-9.4A1.347,1.347,0,0,0,65.056,21.5,21.525,21.525,0,0,0,43.56,0H40.873a21.525,21.525,0,0,0-21.5,21.5,1.347,1.347,0,0,0,1.344,1.344v9.4H19.377a1.347,1.347,0,0,0-1.344,1.344v4.031H12.31a5.371,5.371,0,0,0-5.24,6.543l1.061,4.81L2.624,70.951A12.08,12.08,0,0,0,14.353,85.984H70.081A12.08,12.08,0,0,0,81.81,70.951ZM30.125,32.244H28.782v-9.4A1.347,1.347,0,0,0,30.125,21.5,10.762,10.762,0,0,1,40.873,10.748H43.56A10.762,10.762,0,0,1,54.308,21.5a1.347,1.347,0,0,0,1.344,1.344v9.4H54.308a1.347,1.347,0,0,0-1.344,1.344v4.031h-21.5V33.588A1.347,1.347,0,0,0,30.125,32.244Zm25.527,2.687h8.061v2.687H55.652Zm2.687-2.687v-9.4h2.687v9.4ZM40.873,2.687H43.56A18.832,18.832,0,0,1,62.316,20.153H56.928A13.443,13.443,0,0,0,43.56,8.061H40.873A13.443,13.443,0,0,0,27.505,20.153H22.118A18.832,18.832,0,0,1,40.873,2.687ZM26.095,22.84v9.4H23.408v-9.4ZM20.721,34.931h8.061v2.687H20.721ZM10.215,41.313a2.655,2.655,0,0,1,2.1-1.008H72.123a2.684,2.684,0,0,1,2.62,3.265l-1.129,5.119H73.6l-1.733,7.846A6.674,6.674,0,0,1,65.312,61.8H47.591V56.427a5.374,5.374,0,0,0-10.748,0V61.8H19.122a6.674,6.674,0,0,1-6.556-5.267l-1.733-7.846h-.013L9.691,43.57a2.675,2.675,0,0,1,.524-2.257ZM39.53,61.051a5.273,5.273,0,0,0,2.687.751,5.344,5.344,0,0,0,2.687-.744v4.775a2.687,2.687,0,0,1-5.374,0Zm2.687-1.936A2.687,2.687,0,1,1,44.9,56.427,2.687,2.687,0,0,1,42.217,59.114ZM77.5,79.683A9.324,9.324,0,0,1,70.081,83.3H14.353A9.4,9.4,0,0,1,5.23,71.609l4.205-16.78.511,2.3a9.348,9.348,0,0,0,9.176,7.362H36.843v1.344a5.374,5.374,0,1,0,10.748,0V64.488H65.312a9.351,9.351,0,0,0,9.176-7.362l.511-2.3L79.2,71.609A9.336,9.336,0,0,1,77.5,79.683Z" fill="#232328"/>
      <path id="Path_1049359" data-name="Path 1049359" d="M14.344,35.687H55.992v1.344a1.344,1.344,0,1,0,2.687,0V35.687H62.71a1.344,1.344,0,0,0,0-2.687H14.344a1.344,1.344,0,0,0,0,2.687Z" transform="translate(3.69 11.336)" fill="#232328"/>
    </g>
  </g>
</svg>
