<svg xmlns="http://www.w3.org/2000/svg" xmlns:xlink="http://www.w3.org/1999/xlink" width="118" height="118" viewBox="0 0 118 118">
  <defs>
    <filter id="Ellipse_12115" x="0" y="0" width="118" height="118" filterUnits="userSpaceOnUse">
      <feOffset dy="3" input="SourceAlpha"/>
      <feGaussianBlur stdDeviation="3" result="blur"/>
      <feFlood flood-opacity="0.161"/>
      <feComposite operator="in" in2="blur"/>
      <feComposite in="SourceGraphic"/>
    </filter>
  </defs>
  <g id="Group_1184027" data-name="Group 1184027" transform="translate(9 6)">
    <g transform="matrix(1, 0, 0, 1, -9, -6)" filter="url(#Ellipse_12115)">
      <circle id="Ellipse_12115-2" data-name="Ellipse 12115" cx="50" cy="50" r="50" transform="translate(9 6)" fill="#f8de53"/>
    </g>
    <g id="Group_1184026" data-name="Group 1184026" transform="translate(9.355 31)">
      <path id="Path_1049373" data-name="Path 1049373" d="M189.714,33.189V30h6.7v3.189H224.8a3.188,3.188,0,0,1,3.189,3.189V52.325a3.188,3.188,0,0,1-3.189,3.189H196.411V58.7h-6.7V55.514H176V33.189Zm0,0" transform="translate(-174.405 -25.216)" fill="#995f47"/>
      <path id="Path_1049374" data-name="Path 1049374" d="M135.135,35.514V30.73h-6.378a3.189,3.189,0,1,1,0-6.378h6.378V19.568a3.188,3.188,0,0,0-3.189-3.189H116A6.379,6.379,0,0,1,122.378,10h12.757a9.566,9.566,0,0,1,9.568,9.568V35.514a9.566,9.566,0,0,1-9.568,9.568H122.378A6.379,6.379,0,0,1,116,38.7h15.946A3.188,3.188,0,0,0,135.135,35.514Zm0,0" transform="translate(-81.556 -8.405)" fill="#ffd765"/>
      <path id="Path_1049375" data-name="Path 1049375" d="M27.447,50H10a9.557,9.557,0,0,1,.544,3.189V69.135A9.557,9.557,0,0,1,10,72.325H27.447Zm0,0" transform="translate(52.603 -42.027)" fill="#995f47"/>
      <path id="Path_1049376" data-name="Path 1049376" d="M407.595,110A1.595,1.595,0,1,1,406,111.595,1.6,1.6,0,0,1,407.595,110Zm0,0" transform="translate(-392.286 -92.459)"/>
      <path id="Path_1049377" data-name="Path 1049377" d="M287.595,83.189a1.595,1.595,0,1,1,1.595-1.595A1.6,1.6,0,0,1,287.595,83.189Zm0,0" transform="translate(-253.151 -67.243)"/>
      <path id="Path_1049378" data-name="Path 1049378" d="M287.595,140A1.595,1.595,0,1,1,286,141.595,1.6,1.6,0,0,1,287.595,140Zm0,0" transform="translate(-253.151 -117.675)"/>
      <path id="Path_1049379" data-name="Path 1049379" d="M41.595,80A1.595,1.595,0,1,1,40,81.595,1.6,1.6,0,0,1,41.595,80Zm0,0" transform="translate(32.077 -67.243)"/>
      <path id="Path_1049380" data-name="Path 1049380" d="M41.595,140A1.595,1.595,0,1,1,40,141.595,1.6,1.6,0,0,1,41.595,140Zm0,0" transform="translate(32.077 -117.675)"/>
      <path id="Path_1049381" data-name="Path 1049381" d="M1.595,6.378H13.714V4.784a1.6,1.6,0,0,1,1.595-1.595h6.7A1.6,1.6,0,0,1,23.6,4.784V6.378h9.41A7.986,7.986,0,0,1,40.822,0H53.579A11.186,11.186,0,0,1,63.666,6.378H80.05a1.6,1.6,0,0,1,1.595,1.595V30.3a1.6,1.6,0,0,1-1.595,1.595H63.666a11.186,11.186,0,0,1-10.087,6.378H40.822a7.986,7.986,0,0,1-7.812-6.378H23.6v1.595a1.594,1.594,0,0,1-1.595,1.595h-6.7a1.6,1.6,0,0,1-1.595-1.595V31.892H1.595A1.6,1.6,0,0,1,0,30.3V7.973A1.6,1.6,0,0,1,1.595,6.378ZM78.455,9.566H64.626a11.233,11.233,0,0,1,.115,1.595V27.109a11.319,11.319,0,0,1-.115,1.595H78.455ZM40.822,35.082H53.579a7.975,7.975,0,0,0,7.973-7.973V11.162a7.975,7.975,0,0,0-7.973-7.973H40.822a4.791,4.791,0,0,0-4.51,3.189H50.39a4.789,4.789,0,0,1,4.784,4.784v3.461a4.785,4.785,0,0,1,0,9.022v3.463a4.788,4.788,0,0,1-4.784,4.782H36.312A4.792,4.792,0,0,0,40.822,35.082ZM53.579,20.73a1.595,1.595,0,1,0,0-3.189H47.2a1.595,1.595,0,0,0,0,3.189ZM50.39,28.7a1.6,1.6,0,0,0,1.595-1.595V23.919H47.2a4.784,4.784,0,0,1,0-9.568h4.784V11.162A1.6,1.6,0,0,0,50.39,9.568H23.6V28.7Zm-47.2,0H13.714V25.514a1.595,1.595,0,1,1,3.189,0v6.378h3.508V6.378H16.9v6.378a1.595,1.595,0,1,1-3.189,0V9.568H3.189Zm0,0"/>
    </g>
  </g>
</svg>
