<svg xmlns="http://www.w3.org/2000/svg" width="95" height="95" viewBox="0 0 95 95">
  <g id="Group_1183657" data-name="Group 1183657" transform="translate(-195.051 -839)">
    <circle id="Ellipse_12137" data-name="Ellipse 12137" cx="47.5" cy="47.5" r="47.5" transform="translate(195.051 839)" fill="#f88e15"/>
    <g id="Group_1183656" data-name="Group 1183656" transform="translate(161.232 855)">
      <g id="Group_1183654" data-name="Group 1183654" transform="translate(57.752 0.933)">
        <path id="Path_1049037" data-name="Path 1049037" d="M104.527,273.427a6.307,6.307,0,0,0,6.106-7.887l-4.914-23.5-17.551,1.243L70.6,242.035l-6.031,23.306a7.4,7.4,0,0,0,.751,5.577c1.151,1.519,3.715,2.509,6.471,2.509h32.738Z" transform="translate(-64.325 -212.873)" fill="#dc805a"/>
        <path id="Path_1049038" data-name="Path 1049038" d="M118.739,265.341l-6.031-23.305h-2.465l6.089,23.529a5.293,5.293,0,0,1-5.124,6.619H78.778a15.27,15.27,0,0,1-6.471-1.265,7.435,7.435,0,0,0,6.471,3.752H92.351l2.8-1.243,2.8,1.243h13.57A7.46,7.46,0,0,0,118.739,265.341Z" transform="translate(-71.314 -212.873)" fill="#d66b3e"/>
        <path id="Path_1049039" data-name="Path 1049039" d="M132.34,253.226c10.782,0,16.308-2.808,16.308-5.636l-1.243-5.555H135.128l-2.788,1.243-2.807-1.243H114.77v1.825C114.77,250.173,119.9,253.226,132.34,253.226Z" transform="translate(-108.498 -212.873)" fill="#c48958"/>
        <path id="Path_1049040" data-name="Path 1049040" d="M147.4,242.035v4.312c0,2.828-4.283,5.636-15.064,5.636-12.44,0-17.57-3.637-17.57-8.122v2.487c0,4.486,5.13,8.122,17.57,8.122s17.551-3.637,17.551-8.122v-4.312Z" transform="translate(-108.498 -212.873)" fill="#9a6a53"/>
        <path id="Path_1049041" data-name="Path 1049041" d="M237.861,254.233c0-1.03-.631-12.2-.631-12.2H233.5s.005,6.144.008,9.82c0,.019,0,.04,0,.061C233.509,254.469,237.861,254.84,237.861,254.233Z" transform="translate(-212.465 -212.873)" fill="#f3d69e"/>
        <path id="Path_1049042" data-name="Path 1049042" d="M239.15,242.035h-1.865s.009,9.925.009,10.955c0,.606-3.73.854-3.73-1.074,0-.022,0-.042,0-.061,0,1.332,0,2.34,0,2.614,0,1.03,1.253,1.865,2.8,1.865s2.8-.835,2.8-1.865S239.15,242.035,239.15,242.035Z" transform="translate(-212.519 -212.873)" fill="#edc472"/>
        <path id="Path_1049043" data-name="Path 1049043" d="M237.262,402.141a4.066,4.066,0,0,0-.932-.106c-1.545,0-2.8.835-2.8,1.865,0,.695,0,5.4-.006,8.389l4.6,1.243Z" transform="translate(-212.487 -352.978)" fill="#f3d69e"/>
        <path id="Path_1049044" data-name="Path 1049044" d="M237.248,402.891c0,1.993-.005,7.107-.007,9.216a.932.932,0,0,1-.933.931h-2.8c0,1.443,0,2.487,0,2.487h5.6s.008-9.845.008-10.875C239.113,403.838,238.335,403.147,237.248,402.891Z" transform="translate(-212.473 -353.728)" fill="#edc472"/>
        <path id="Path_1049045" data-name="Path 1049045" d="M137.627,30.445c0-9.516-3.263-16.765-8.959-20.522A18.82,18.82,0,0,0,119.2,7.5c-10.728,0-19.426,7.852-19.426,23.567a1.857,1.857,0,0,0,.106.616c1.759,1.249,2.629-.244,2.629-1.238,0-12.6,7.6-20.083,16.362-20.083a14.294,14.294,0,0,1,9.626,3.942c3.88,3.1,6.4,8.59,6.4,16.763a1.858,1.858,0,0,0,.106.616C136.756,32.932,137.627,31.439,137.627,30.445Z" transform="translate(-95.363 -7.5)" fill="#c48958"/>
        <g id="Group_1183653" data-name="Group 1183653" transform="translate(4.514 2.121)">
          <path id="Path_1049046" data-name="Path 1049046" d="M118.7,24.557c-8.758,0-16.316,8.228-16.316,20.824,0,.994-.778,1.182-1.759,1.238A1.864,1.864,0,0,0,104.25,46c0-13.654,7.027-19.837,15.7-19.837a14.644,14.644,0,0,1,9.3,3.074A13.341,13.341,0,0,0,118.7,24.557Z" transform="translate(-100.626 -24.557)" fill="#9a6a53"/>
          <path id="Path_1049047" data-name="Path 1049047" d="M332.179,26.989c4.9,3.752,8.089,11.006,8.089,20.522,0,.994-.778,1.182-1.759,1.238a1.864,1.864,0,0,0,3.624-.616C342.132,37.456,338.117,30.41,332.179,26.989Z" transform="translate(-303.388 -26.687)" fill="#9a6a53"/>
        </g>
      </g>
      <g id="Group_1183655" data-name="Group 1183655" transform="translate(56.819 0)">
        <path id="Path_1049048" data-name="Path 1049048" d="M97.954,63.662H71.494a.933.933,0,1,1,0-1.865h6.363c0-2.047.008-9.064.008-9.943a2.5,2.5,0,0,1,1.111-2.009,3.724,3.724,0,0,1,0-5.307,2.747,2.747,0,0,1-.952-1.185c-4.808-.305-8.54-1.254-11.1-2.82a7.62,7.62,0,0,1-3.549-4.217L58.9,53.634a6.528,6.528,0,0,0,6.32,8.163h2.548a.933.933,0,1,1,0,1.865H65.216a8.393,8.393,0,0,1-8.125-10.5l6-23.191V27.137A2.8,2.8,0,0,1,61.227,24.5c0-8.116,2.294-14.7,6.635-19.047A.932.932,0,1,1,69.182,6.77c-3.984,3.987-6.09,10.118-6.09,17.729a.933.933,0,0,0,1.865,0c0-6.718,1.624-11.984,4.827-15.652a15.159,15.159,0,0,1,11.8-5.117,15.159,15.159,0,0,1,11.8,5.117c3.2,3.668,4.827,8.934,4.827,15.652a.933.933,0,1,0,1.865,0c0-7.172-1.885-13.07-5.452-17.054a16.964,16.964,0,0,0-13.041-5.58A17.647,17.647,0,0,0,72.1,4.447a.933.933,0,1,1-.986-1.583A19.751,19.751,0,0,1,81.585,0,18.781,18.781,0,0,1,96.016,6.2c3.878,4.332,5.927,10.66,5.927,18.3a2.8,2.8,0,0,1-1.865,2.638v2.839l4.989,19.277a.933.933,0,0,1-1.806.467l-3.468-13.4a7.615,7.615,0,0,1-3.541,4.216c-2.551,1.566-6.28,2.514-11.085,2.82a2.747,2.747,0,0,1-.952,1.185,3.724,3.724,0,0,1,0,5.307,2.5,2.5,0,0,1,1.111,2.009c0,.878-.006,7.893-.008,9.943H97.955a6.528,6.528,0,0,0,6.32-8.163.933.933,0,0,1,1.806-.467,8.393,8.393,0,0,1-8.126,10.5ZM79.722,61.8h3.73c0-2.047.008-9.064.008-9.943,0-.38-.727-.933-1.865-.933s-1.865.552-1.865.933C79.729,52.733,79.723,59.748,79.722,61.8Zm1.873-16.471a1.865,1.865,0,1,0,1.865,1.865A1.867,1.867,0,0,0,81.594,45.327Zm-1.874-14.3c0,2.258.009,10.612.009,11.5,0,.38.727.933,1.865.933s1.865-.552,1.865-.933c0-.89-.007-9.246-.009-11.5Zm-14.763,0v3.379c0,3.933,4.694,6.5,12.907,7.067,0-2.533-.007-8.58-.008-10.446Zm20.359,0c0,1.869.007,7.914.008,10.446,8.2-.571,12.889-3.133,12.889-7.067V31.027H92.885a.933.933,0,1,1,0-1.865h5.328V27.137A2.8,2.8,0,0,1,96.348,24.5c0-6.166-1.51-11.154-4.367-14.425A13.345,13.345,0,0,0,81.585,5.6a13.345,13.345,0,0,0-10.4,4.479c-2.857,3.271-4.367,8.26-4.367,14.425a2.8,2.8,0,0,1-1.865,2.638v2.025h24.2a.933.933,0,1,1,0,1.865H85.316Z" transform="translate(-56.819 0)"/>
      </g>
    </g>
  </g>
</svg>
