<svg xmlns="http://www.w3.org/2000/svg" width="105" height="105" viewBox="0 0 105 105">
  <g id="Group_1184075" data-name="Group 1184075" transform="translate(-201.925 -11238)">
    <circle id="Ellipse_12157" data-name="Ellipse 12157" cx="52.5" cy="52.5" r="52.5" transform="translate(201.925 11238)" fill="#f8de53"/>
    <g id="_x31_6_x2C__Bag_x2C__purse_x2C__hand_bag_x2C__clothes_x2C__women" transform="translate(219.929 11256)">
      <g id="Group_1184074" data-name="Group 1184074" transform="translate(0.996 1)">
        <g id="Group_1184072" data-name="Group 1184072" transform="translate(1.304 1.304)">
          <path id="Path_1049658" data-name="Path 1049658" d="M78.48,249.9h-49.9l-5.392,18.4c-1.23,10.333,61.96,10.04,60.681,0Z" transform="translate(-21.585 -218.75)" fill="#d74b57"/>
          <path id="Path_1049659" data-name="Path 1049659" d="M74.705,395.848a7.823,7.823,0,0,1-7.642,9.495H18.824a7.823,7.823,0,0,1-7.642-9.495L12.6,391H73.284Z" transform="translate(-10.998 -341.452)" fill="#db6275"/>
          <path id="Path_1049660" data-name="Path 1049660" d="M101.762,191a3.912,3.912,0,0,1,3.4,5.853c-.03.052-5.9,10.323-5.947,10.406h0v0h0l-.01.018a3.911,3.911,0,0,1-3.4,1.971H62.529a3.938,3.938,0,0,1-3.407-1.99,0,0,0,0,0,0,0,0,0,0,0,0,0,0h0c-.036-.062-5.932-10.381-5.947-10.406a3.912,3.912,0,0,1,3.4-5.853Z" transform="translate(-47.22 -167.53)" fill="#f7e352"/>
          <path id="Path_1049661" data-name="Path 1049661" d="M156.2,42.946h-6.52V28.6a11.083,11.083,0,1,0-22.166,0V42.946H121V28.6a17.6,17.6,0,0,1,35.205,0Z" transform="translate(-106.656 -11)" fill="#e08595"/>
          <path id="Path_1049662" data-name="Path 1049662" d="M231.43,294.039a5.216,5.216,0,1,1-10.431,0V281H231.43Z" transform="translate(-193.617 -245.795)" fill="#edbc34"/>
          <g id="Group_1184071" data-name="Group 1184071" transform="translate(14.133 28.706)">
            <circle id="Ellipse_12188" data-name="Ellipse 12188" cx="3.158" cy="3.158" r="3.158" transform="translate(28.77 0)" fill="#e5e8fd"/>
            <ellipse id="Ellipse_12189" data-name="Ellipse 12189" cx="3.509" cy="3.158" rx="3.509" ry="3.158" transform="translate(0 0)" fill="#e5e8fd"/>
          </g>
        </g>
        <g id="Group_1184073" data-name="Group 1184073" transform="translate(0)">
          <path id="Path_1049663" data-name="Path 1049663" d="M67.281,56.421c-.015-.07-1.32-4.512-6.679-22.8l.769-1.346a5.215,5.215,0,0,0-4.529-7.8h-3.69V19.907a18.907,18.907,0,1,0-37.813,0V24.47h-3.69a5.215,5.215,0,0,0-4.529,7.8l.769,1.346C2.53,51.909,1.226,56.351,1.21,56.421A9.126,9.126,0,0,0,10.126,67.5H58.365A9.126,9.126,0,0,0,67.281,56.421Zm-4.435-5.873H41.417V45.333h9.465A5.228,5.228,0,0,0,55.228,43c.158-.239-.022.064,3.578-6.237Zm-31.86,0V38.813h7.823V50.548a3.912,3.912,0,0,1-7.823,0ZM44.025,24.47H24.466V19.907a9.779,9.779,0,1,1,19.558,0ZM17.947,19.907a16.3,16.3,0,1,1,32.6,0v10.22a4.554,4.554,0,0,0-3.912,0V19.907a12.387,12.387,0,1,0-24.774,0v10.22a4.554,4.554,0,0,0-3.912,0Zm32.6,14.343a1.956,1.956,0,1,1-1.956-1.956A1.958,1.958,0,0,1,50.544,34.249Zm-28.686,0A1.956,1.956,0,1,1,19.9,32.294,1.958,1.958,0,0,1,21.859,34.249Zm-10.21-7.171h3.69v7.171a4.564,4.564,0,1,0,9.127,0V27.078H44.025v7.171a4.564,4.564,0,0,0,9.127,0V27.078h3.69a2.608,2.608,0,0,1,2.264,3.9L53.158,41.39a2.625,2.625,0,0,1-2.276,1.334H41.417V37.509a1.3,1.3,0,0,0-1.3-1.3H29.682a1.3,1.3,0,0,0-1.3,1.3v5.216H17.609a2.615,2.615,0,0,1-2.276-1.334L9.384,30.98A2.608,2.608,0,0,1,11.649,27.078Zm1.4,15.579a5.309,5.309,0,0,0,4.556,2.676H28.378v5.216H5.646l4.04-13.785ZM58.365,64.891H10.126a6.519,6.519,0,0,1-6.377-7.87l1.133-3.865H28.924a6.517,6.517,0,0,0,11.947,0H63.61l1.133,3.865A6.519,6.519,0,0,1,58.365,64.891Z" transform="translate(-0.996 -1)"/>
          <ellipse id="Ellipse_12190" data-name="Ellipse 12190" cx="1.403" cy="1.053" rx="1.403" ry="1.053" transform="translate(32.279 41.939)"/>
          <circle id="Ellipse_12191" data-name="Ellipse 12191" cx="1.403" cy="1.403" r="1.403" transform="translate(32.279 46.851)"/>
        </g>
      </g>
    </g>
  </g>
</svg>
