<svg xmlns="http://www.w3.org/2000/svg" width="113" height="113" viewBox="0 0 113 113">
  <g id="Group_1184302" data-name="Group 1184302" transform="translate(-194.881 -3028)">
    <circle id="Ellipse_12160" data-name="Ellipse 12160" cx="56.5" cy="56.5" r="56.5" transform="translate(194.881 3028)" fill="#f8de53"/>
    <g id="Group_1184301" data-name="Group 1184301" transform="translate(215.908 3036.651)">
      <g id="Group_1184300" data-name="Group 1184300" transform="translate(2.056 16.429)">
        <path id="Path_1049771" data-name="Path 1049771" d="M156.16,23.35a15.618,15.618,0,0,1,15.579,15.579V61.5a15.579,15.579,0,0,1-31.157,0V38.929A15.618,15.618,0,0,1,156.16,23.35Zm7.748,7.831a10.973,10.973,0,0,0-18.721,7.748V61.5a10.973,10.973,0,0,0,21.946,0V38.929A10.937,10.937,0,0,0,163.908,31.181Z" transform="translate(-122.821 -23.35)" fill="#ffda2d" fill-rule="evenodd"/>
        <path id="Path_1049772" data-name="Path 1049772" d="M75.34,197.767,67.6,167.131a2.63,2.63,0,0,0-2.576-2.006H19.651a2.63,2.63,0,0,0-2.576,2.006L9.338,197.767c-2.184,8.649,6.883,11.025,8.587,11.025H66.754C68.458,208.793,77.525,206.417,75.34,197.767Z" transform="translate(-9.001 -145.989)" fill="#ff94d5" fill-rule="evenodd"/>
        <path id="Path_1049773" data-name="Path 1049773" d="M102.607,178.443l-2.857-11.311a2.63,2.63,0,0,0-2.576-2.006H51.8a2.63,2.63,0,0,0-2.576,2.006l-2.857,11.311c-1.4,5.554,4.874,7.369,7.525,7.369H95.082C97.734,185.812,104.01,184,102.607,178.443Z" transform="translate(-41.148 -145.989)" fill="#ff72c7" fill-rule="evenodd"/>
        <path id="Path_1049774" data-name="Path 1049774" d="M219.293,286.165a5.744,5.744,0,0,0,5.728-5.728v-7.682a1.309,1.309,0,0,0-1.306-1.306h-8.843a1.31,1.31,0,0,0-1.306,1.306v7.682A5.744,5.744,0,0,0,219.293,286.165Z" transform="translate(-185.954 -237.962)" fill="#ffda2d" fill-rule="evenodd"/>
        <circle id="Ellipse_12198" data-name="Ellipse 12198" cx="2.207" cy="2.207" r="2.207" transform="translate(31.132 40.269)" fill="#fdb800"/>
        <path id="Path_1049775" data-name="Path 1049775" d="M154.186,145.03h6.875a.711.711,0,0,1,.708.708v4.007a.711.711,0,0,1-.708.708h-6.875a.711.711,0,0,1-.708-.708v-4.007A.71.71,0,0,1,154.186,145.03Zm-26.552,0h6.875a.711.711,0,0,1,.708.708v4.007a.711.711,0,0,1-.708.708h-6.875a.711.711,0,0,1-.708-.708v-4.007A.71.71,0,0,1,127.634,145.03Z" transform="translate(-111.009 -128.606)" fill="#ff4fb9" fill-rule="evenodd"/>
      </g>
      <path id="Path_1049776" data-name="Path 1049776" d="M35.4,60.031A1.127,1.127,0,1,1,36.522,58.9,1.128,1.128,0,0,1,35.4,60.031Zm0-4.414A3.287,3.287,0,1,0,38.682,58.9,3.291,3.291,0,0,0,35.4,55.617Zm29.6,13.449a4.994,4.994,0,0,1-.647,4.155,6.319,6.319,0,0,1-4.516,2.494,1.117,1.117,0,0,1-.132.008H52.3a1.08,1.08,0,0,1,0-2.16H59.63A4.15,4.15,0,0,0,62.566,72a2.859,2.859,0,0,0,.334-2.4l-.922-3.648a1.08,1.08,0,0,1,2.1-.528ZM19.57,74.643a1.079,1.079,0,0,1-1.08,1.08h-7.4a1.122,1.122,0,0,1-.131-.008,6.316,6.316,0,0,1-4.516-2.494A4.985,4.985,0,0,1,5.8,69.066l.921-3.647a1.08,1.08,0,1,1,2.094.528L7.891,69.6A2.853,2.853,0,0,0,8.225,72a4.146,4.146,0,0,0,2.935,1.564h7.33A1.079,1.079,0,0,1,19.57,74.643Zm46.759.074a6.939,6.939,0,0,0,1.021-6.245l-3.687-14.6c-.029.039-.057.08-.087.119-1.907,2.447-5.58,3.337-7.584,3.337H42.2V58.9a6.807,6.807,0,0,1-13.615,0V57.332H14.8c-2,0-5.678-.889-7.586-3.337-.029-.039-.058-.079-.086-.119l-3.687,14.6a6.932,6.932,0,0,0,1.021,6.245,10.3,10.3,0,0,0,6.519,3.435H59.81a10.309,10.309,0,0,0,6.519-3.435Zm-26.286-23.5A.228.228,0,0,0,39.817,51H30.974a.23.23,0,0,0-.227.227V58.9a4.648,4.648,0,0,0,9.3,0V51.221ZM11.178,37.836a1.555,1.555,0,0,1,1.53-1.19h4.185v.923a1.791,1.791,0,0,0,1.789,1.789h6.876a1.791,1.791,0,0,0,1.788-1.789v-.923h16.1v.923a1.79,1.79,0,0,0,1.788,1.789h6.875A1.79,1.79,0,0,0,53.9,37.569v-.923h4.187a1.556,1.556,0,0,1,1.529,1.19l2.856,11.311a3.864,3.864,0,0,1-.6,3.522c-1.346,1.726-4.249,2.5-5.881,2.5H42.2V51.221a2.388,2.388,0,0,0-2.385-2.385H30.974a2.389,2.389,0,0,0-2.387,2.386v3.949H14.8c-1.632,0-4.536-.777-5.881-2.5a3.859,3.859,0,0,1-.6-3.522ZM35.4,17.508a14.539,14.539,0,0,1,14.5,14.264H47.444a12.052,12.052,0,0,0-24.1,0H20.9A14.516,14.516,0,0,1,35.4,17.508ZM45.6,33.932V37.2h6.132V33.932Zm-26.552,0V37.2h6.133V33.932Zm24.393-.371a1.79,1.79,0,0,1,1.788-1.789h.049a9.89,9.89,0,0,0-19.775,0h.05a1.791,1.791,0,0,1,1.788,1.789v.925h16.1Zm26,34.382L61.706,37.307a3.687,3.687,0,0,0-3.623-2.821H53.9v-.925a1.79,1.79,0,0,0-1.788-1.789h-.057a16.658,16.658,0,0,0-33.312,0h-.058a1.791,1.791,0,0,0-1.789,1.789v.925H12.708a3.688,3.688,0,0,0-3.624,2.821L1.347,67.943a8.989,8.989,0,0,0,1.411,8.1,12.238,12.238,0,0,0,8.223,4.268H59.81a12.238,12.238,0,0,0,8.222-4.268A8.987,8.987,0,0,0,69.443,67.943Z" transform="translate(0)" fill-rule="evenodd"/>
    </g>
  </g>
</svg>
