<svg xmlns="http://www.w3.org/2000/svg" xmlns:xlink="http://www.w3.org/1999/xlink" width="118" height="118" viewBox="0 0 118 118">
  <defs>
    <filter id="Ellipse_12115" x="0" y="0" width="118" height="118" filterUnits="userSpaceOnUse">
      <feOffset dy="3" input="SourceAlpha"/>
      <feGaussianBlur stdDeviation="3" result="blur"/>
      <feFlood flood-opacity="0.161"/>
      <feComposite operator="in" in2="blur"/>
      <feComposite in="SourceGraphic"/>
    </filter>
  </defs>
  <g id="Group_1184442" data-name="Group 1184442" transform="translate(-269 -1710)">
    <g transform="matrix(1, 0, 0, 1, 269, 1710)" filter="url(#Ellipse_12115)">
      <circle id="Ellipse_12115-2" data-name="Ellipse 12115" cx="50" cy="50" r="50" transform="translate(9 6)" fill="#f8de53"/>
    </g>
    <g id="briefcase_1465403" transform="translate(295.405 1730.554)">
      <path id="Path_1048662" data-name="Path 1048662" d="M397.407,227.349a8.5,8.5,0,0,1-8.289,10.331h-.932l-1.675-12.56-.283-2.093L384,206.28h2.093a1.05,1.05,0,0,0,1.047-1.047V200h4.187Zm0,0" transform="translate(-333.76 -173.833)" fill="#cf9e76"/>
      <path id="Path_1048663" data-name="Path 1048663" d="M283.956,202.093l.23-2.093h4.187v5.233a1.05,1.05,0,0,0,1.047,1.047h4.187l2.229,16.747.283,2.093,1.675,12.56H280l3.025-27.213Zm0,0" transform="translate(-243.367 -173.833)" fill="#b27946"/>
      <path id="Path_1048664" data-name="Path 1048664" d="M21.607,206.28l-2.229,16.747-.283,2.093L17.42,237.68h-.932A8.5,8.5,0,0,1,8.2,227.349L14.28,200h4.187v5.233a1.05,1.05,0,0,0,1.047,1.047Zm0,0" transform="translate(-6.953 -173.834)" fill="#cf9e76"/>
      <path id="Path_1048665" data-name="Path 1048665" d="M94.768,210.467l3.025,27.213H80l1.675-12.56.283-2.093,2.229-16.747h4.187a1.05,1.05,0,0,0,1.047-1.047V200h4.187l.23,2.093Zm0,0" transform="translate(-69.533 -173.833)" fill="#b27946"/>
      <path id="Path_1048666" data-name="Path 1048666" d="M207.3,280l-3.025,27.213H195.9L192.879,280Zm0,0" transform="translate(-167.644 -243.367)" fill="#fcd770"/>
      <path id="Path_1048667" data-name="Path 1048667" d="M202.047,216l-.931,8.373H186.693L185.762,216Zm0,0" transform="translate(-161.458 -187.74)" fill="#ffc729"/>
      <path id="Path_1048668" data-name="Path 1048668" d="M352.373,200v5.233a1.05,1.05,0,0,1-1.047,1.047h-6.28A1.05,1.05,0,0,1,344,205.233V200Zm0,0" transform="translate(-298.994 -173.833)" fill="#fcd770"/>
      <path id="Path_1048669" data-name="Path 1048669" d="M96.373,200v5.233a1.05,1.05,0,0,1-1.047,1.047h-6.28A1.05,1.05,0,0,1,88,205.233V200Zm0,0" transform="translate(-76.487 -173.833)" fill="#fcd770"/>
      <path id="Path_1048670" data-name="Path 1048670" d="M141.68,26.84v6.28h-4.187V26.84a14.653,14.653,0,1,0-29.306,0v6.28H104V26.84a18.84,18.84,0,1,1,37.68,0Zm0,0" transform="translate(-90.393 -6.953)" fill="#dfb28b"/>
      <path id="Path_1048671" data-name="Path 1048671" d="M216,240h8.373v2.093H216Zm0,0" transform="translate(-187.74 -208.6)"/>
      <path id="Path_1048672" data-name="Path 1048672" d="M64.666,53.29,58.406,25.12H52.333V19.887a19.887,19.887,0,1,0-39.773,0V25.12H6.488L.228,53.289a9.532,9.532,0,0,0,9.306,11.6H55.358a9.535,9.535,0,0,0,9.308-11.6ZM46.053,31.4V27.213h6.28V31.4Zm-7.334,4.187H26.174l-.7-6.28H39.418ZM39.882,25.12l-.233,2.093H25.244l-.233-2.093H18.84V19.887a13.607,13.607,0,1,1,27.213,0V25.12ZM12.56,31.4V27.213h6.28V31.4Zm2.093-11.513a17.793,17.793,0,0,1,35.586,0V25.12H48.147V19.889a15.7,15.7,0,1,0-31.4,0V25.12H14.653ZM11.662,62.8l1.516-11.375L11.1,51.147,9.55,62.8H9.534a7.439,7.439,0,0,1-7.263-9.056L8.166,27.213h2.3V31.4a2.1,2.1,0,0,0,2.093,2.093h.9L11.383,49.055l2.074.277,2.112-15.839H18.84A2.1,2.1,0,0,0,20.933,31.4V27.213h2.2L27.09,62.8Zm17.536,0L26.406,37.68H38.487L35.7,62.8Zm26.161,0h-.016L53.79,51.148l-2.074.277L53.231,62.8H37.8l3.954-35.586h2.2V31.4a2.1,2.1,0,0,0,2.093,2.093h3.271l2.112,15.838,2.074-.277L51.435,33.493h.9A2.1,2.1,0,0,0,54.426,31.4V27.213h2.3l5.9,26.532A7.442,7.442,0,0,1,55.359,62.8Zm0,0" transform="translate(0 0)"/>
    </g>
  </g>
</svg>
