<svg xmlns="http://www.w3.org/2000/svg" xmlns:xlink="http://www.w3.org/1999/xlink" width="118" height="118" viewBox="0 0 118 118">
  <defs>
    <filter id="Ellipse_12115" x="0" y="0" width="118" height="118" filterUnits="userSpaceOnUse">
      <feOffset dy="3" input="SourceAlpha"/>
      <feGaussianBlur stdDeviation="3" result="blur"/>
      <feFlood flood-opacity="0.161"/>
      <feComposite operator="in" in2="blur"/>
      <feComposite in="SourceGraphic"/>
    </filter>
  </defs>
  <g id="Group_1184446" data-name="Group 1184446" transform="translate(-1216.041 -1710)">
    <g transform="matrix(1, 0, 0, 1, 1216.04, 1710)" filter="url(#Ellipse_12115)">
      <circle id="Ellipse_12115-2" data-name="Ellipse 12115" cx="50" cy="50" r="50" transform="translate(9 6)" fill="#f8de53"/>
    </g>
    <g id="_x30_8_Woman_Bag" transform="translate(1225.463 1714.997)">
      <g id="Group_1184445" data-name="Group 1184445" transform="translate(18.579 20.003)">
        <path id="Path_1050141" data-name="Path 1050141" d="M151.622,43.228v6.829h-4.076V43.228a14.518,14.518,0,0,0-29.036,0v6.829h-4.082V43.228a18.6,18.6,0,1,1,37.195,0Z" transform="translate(-101.836 -24.023)" fill="#61caf7"/>
        <path id="Path_1050142" data-name="Path 1050142" d="M119.248,71a22.3,22.3,0,0,0,2.279,3.623,14.423,14.423,0,0,0-3.039,8.887v6.826H114.4V83.508A18.54,18.54,0,0,1,119.248,71Z" transform="translate(-101.815 -64.299)" fill="#0da3e3"/>
        <path id="Path_1050143" data-name="Path 1050143" d="M369.462,137.329v6.826h-4.079v-6.826a14.932,14.932,0,0,0-.176-2.286,21.372,21.372,0,0,0,3.738-2.085A18.783,18.783,0,0,1,369.462,137.329Z" transform="translate(-319.674 -118.12)" fill="#0da3e3"/>
        <path id="Path_1050144" data-name="Path 1050144" d="M77.883,243.92H29.691a6.482,6.482,0,0,1-6.37-7.686l4.694-24.887a5.131,5.131,0,0,1,1.489-2.773,5.186,5.186,0,0,1,3.624-1.469H74.446a5.186,5.186,0,0,1,3.624,1.469,5.131,5.131,0,0,1,1.489,2.773l4.694,24.887a6.482,6.482,0,0,1-6.37,7.686Z" transform="translate(-22.599 -182.526)" fill="#fd8d06"/>
        <path id="Path_1050145" data-name="Path 1050145" d="M77.881,243.906H29.69a6.481,6.481,0,0,1-6.37-7.683l4.693-24.892a5.205,5.205,0,0,1,5.112-4.243h1.447l-4.158,22.041a6.478,6.478,0,0,0,6.37,7.683H84.336A6.485,6.485,0,0,1,77.881,243.906Z" transform="translate(-22.598 -182.512)" fill="#d54e21"/>
        <path id="Path_1050146" data-name="Path 1050146" d="M119.713,208.574l-5.352,12.015a7.042,7.042,0,0,1-6.43,4.169h-25a7.042,7.042,0,0,1-6.43-4.169l-5.353-12.015a5.186,5.186,0,0,1,3.624-1.469H116.09A5.185,5.185,0,0,1,119.713,208.574Z" transform="translate(-64.243 -182.527)" fill="#fff"/>
        <path id="Path_1050147" data-name="Path 1050147" d="M231.192,302.62c1.752,2.168,1.752,8.98,0,11.148-.822,1.017-4.3.924-5.229,0-1.971-1.971-1.971-9.177,0-11.148C226.887,301.7,230.37,301.6,231.192,302.62Z" transform="translate(-197.437 -264.863)" fill="#fff"/>
        <path id="Path_1050148" data-name="Path 1050148" d="M76.136,48.714a5.714,5.714,0,0,0-1.663-3.1,5.777,5.777,0,0,0-4.047-1.641H68.971V39.208a19.205,19.205,0,1,0-38.41,0v4.764H29.108a5.778,5.778,0,0,0-4.046,1.64h0A5.713,5.713,0,0,0,23.4,48.71L18.7,73.6A7.091,7.091,0,0,0,25.671,82H73.863A7.09,7.09,0,0,0,80.829,73.6ZM31.777,39.208a17.989,17.989,0,1,1,35.979,0v4.764H64.9V39.208a15.126,15.126,0,0,0-30.252,0v4.764H31.777Zm31.9,4.764H35.86V39.208a13.91,13.91,0,0,1,27.821,0Zm6.745,1.216A4.653,4.653,0,0,1,73.3,46.2l.008.007L68.141,57.817a6.438,6.438,0,0,1-5.874,3.809h-8.1a8.478,8.478,0,0,0-1.365-4.248h0c-1.075-1.329-4.977-1.2-6.132-.048a7.348,7.348,0,0,0-1.564,4.3H37.266a6.438,6.438,0,0,1-5.874-3.808L26.221,46.21l.008-.007a4.667,4.667,0,0,1,2.879-1.014H70.425ZM51.861,68.526c-.561.7-3.626.651-4.326-.048-.789-.79-1.3-2.809-1.3-5.144s.51-4.354,1.3-5.144c.673-.672,3.743-.77,4.326-.048h0c1.568,1.941,1.568,8.443,0,10.384Zm22,12.262H25.671A5.875,5.875,0,0,1,19.9,73.823l4.695-24.891a4.484,4.484,0,0,1,.733-1.744l4.956,11.125a7.656,7.656,0,0,0,6.985,4.529h7.767c0,.164-.014.325-.014.493,0,2.722.619,4.967,1.656,6,1.155,1.155,5.06,1.279,6.131-.048,1.034-1.279,1.51-3.91,1.438-6.448h8.022a7.655,7.655,0,0,0,6.984-4.53l4.956-11.125a4.5,4.5,0,0,1,.734,1.748l4.694,24.887A5.875,5.875,0,0,1,73.863,80.788Z" transform="translate(-18.579 -20.003)"/>
      </g>
    </g>
  </g>
</svg>
