<svg xmlns="http://www.w3.org/2000/svg" xmlns:xlink="http://www.w3.org/1999/xlink" width="118" height="118" viewBox="0 0 118 118">
  <defs>
    <filter id="Ellipse_12115" x="0" y="0" width="118" height="118" filterUnits="userSpaceOnUse">
      <feOffset dy="3" input="SourceAlpha"/>
      <feGaussianBlur stdDeviation="3" result="blur"/>
      <feFlood flood-opacity="0.161"/>
      <feComposite operator="in" in2="blur"/>
      <feComposite in="SourceGraphic"/>
    </filter>
  </defs>
  <g id="Group_1184443" data-name="Group 1184443" transform="translate(-585.945 -1710)">
    <g transform="matrix(1, 0, 0, 1, 585.95, 1710)" filter="url(#Ellipse_12115)">
      <circle id="Ellipse_12115-2" data-name="Ellipse 12115" cx="50" cy="50" r="50" transform="translate(9 6)" fill="#f8de53"/>
    </g>
    <g id="Women_Bag" data-name="Women Bag" transform="translate(608.712 1727.184)">
      <path id="Path_1050121" data-name="Path 1050121" d="M39.885,46.215h1.754c12.417,0,22.484-7.658,22.484-17.106,0-2.771-3-5.11-6.711-5.11h-42.7C11,24,8,26.338,8,29.11V60.246a4.9,4.9,0,0,0,5.1,4.677H59.972A4.431,4.431,0,0,0,64.123,60.9V29.846" transform="translate(0.169 2.539)" fill="#fc8865"/>
      <path id="Path_1050122" data-name="Path 1050122" d="M64.062,28.967a4.852,4.852,0,0,0-2.771-4.127,3.917,3.917,0,0,1,.433,1.789V58.42a4.431,4.431,0,0,1-4.151,4.022H10.7a5.332,5.332,0,0,1-2.338-.561,5.121,5.121,0,0,0,4.677,2.9H59.911a4.431,4.431,0,0,0,4.151-4.022V28.967Z" transform="translate(0.23 2.681)" fill="#ce6e57"/>
      <path id="Path_1050123" data-name="Path 1050123" d="M40.739,24H14.711C11,24,8,26.338,8,29.11v.737C8,35.564,11.683,39.89,17.354,43l4.677,1.964a28.635,28.635,0,0,0,8.454,1.251h2.07V42.708h7.015v3.508h2.07c12.417,0,22.484-6.922,22.484-16.369V29.11c0-2.771-3-5.11-6.711-5.11h-42.7C11,24,8,26.338,8,29.11" transform="translate(0.169 2.539)" fill="#ffc93c"/>
      <path id="Path_1050124" data-name="Path 1050124" d="M51.842,24H48.58c3.706,0,6.711,2.28,6.711,5.11v.737c0,9.143-9.436,15.9-21.292,16.369h2.07c12.417,0,22.484-6.922,22.484-16.369V29.11c0-2.771-3-5.11-6.711-5.11Z" transform="translate(4.569 2.539)" fill="#d6a330"/>
      <path id="Path_1050125" data-name="Path 1050125" d="M38.719,10H28.78A10.593,10.593,0,0,0,18,20.406v5.963h4.677V22.1a7.565,7.565,0,0,1,7.705-7.425h7.974A7.565,7.565,0,0,1,46.062,22.1v4.268h4.677V20.406C50.739,14.759,45.033,10,38.719,10Z" transform="translate(1.862 0.169)" fill="#91d8e4"/>
      <path id="Path_1050126" data-name="Path 1050126" d="M65.462,31.648c0-3.508-3.508-6.279-7.881-6.279H53.769V20.576A11.505,11.505,0,0,0,47.315,10.3a1.169,1.169,0,1,0-1.052,2.081,9.167,9.167,0,0,1,5.168,8.185v4.806H49.092v-3.1a8.746,8.746,0,0,0-8.874-8.594H32.244a8.746,8.746,0,0,0-8.874,8.594v3.1H21.031V20.576a9.436,9.436,0,0,1,9.611-9.237H41.82A1.169,1.169,0,1,0,41.82,9H30.642a11.786,11.786,0,0,0-11.95,11.575v4.794H14.881C10.508,25.369,7,28.187,7,31.648V62.785a6.08,6.08,0,0,0,6.267,5.846H59.195a6.758,6.758,0,0,0,1.929-.281,1.173,1.173,0,0,0-.678-2.245,4.1,4.1,0,0,1-1.251.187H13.267a3.742,3.742,0,0,1-3.929-3.508V39.552a20.356,20.356,0,0,0,7.623,7.015,1.1,1.1,0,0,0,.561.152,1.17,1.17,0,0,0,.561-2.2C12.612,41.5,9.338,36.7,9.338,31.648c0-2.175,2.479-3.94,5.542-3.94H40.908a1.169,1.169,0,0,0,0-2.338h-15.2v-3.1a6.407,6.407,0,0,1,6.536-6.255h7.974a6.407,6.407,0,0,1,6.536,6.255v3.1H45.585a1.169,1.169,0,0,0,0,2.338h12c3.063,0,5.542,1.766,5.542,3.94,0,8.781-9.564,15.937-21.315,15.937h-.9V45.246a1.169,1.169,0,0,0-1.169-1.169H32.723a1.169,1.169,0,0,0-1.169,1.169v2.338h-.9a27.021,27.021,0,0,1-8.1-1.169,1.17,1.17,0,1,0-.7,2.233,29.453,29.453,0,0,0,8.8,1.274h.9a4.677,4.677,0,1,0,9.354,0h.9c9.354,0,17.538-4.268,21.315-10.406V62.785a1.169,1.169,0,0,0,2.338,0v-30.4a1.052,1.052,0,0,0,0-.187ZM38.569,49.923a2.338,2.338,0,1,1-4.677,0V46.416h4.677Z" transform="translate(0 0)"/>
    </g>
  </g>
</svg>
