<svg xmlns="http://www.w3.org/2000/svg" width="154" height="103.324" viewBox="0 0 154 103.324">
  <g id="Group_1183817" data-name="Group 1183817" transform="translate(-1238 -418)">
    <rect id="Rectangle_408823" data-name="Rectangle 408823" width="154" height="71" rx="8" transform="translate(1238 434)" fill="#4c4b48"/>
    <g id="Group_1183816" data-name="Group 1183816" transform="translate(1232.827 418)">
      <g id="Group_1183814" data-name="Group 1183814" transform="translate(40.246 2.022)">
        <path id="Path_1049117" data-name="Path 1049117" d="M125.338,242.726H55a6.756,6.756,0,0,1-6.741-7.22l4.008-58.326h75.8l4.008,58.326A6.756,6.756,0,0,1,125.338,242.726Z" transform="translate(-48.242 -143.446)" fill="#7ddac2"/>
        <path id="Path_1049118" data-name="Path 1049118" d="M191.267,27.812v4.541c0-3.512-2.453-6.695-6.416-9a31.381,31.381,0,0,0-15.489-3.727c-12.1,0-21.9,5.7-21.9,12.724V27.812c0-9.825,9.807-17.792,21.9-17.792a24.606,24.606,0,0,1,15.489,5.211,16.269,16.269,0,0,1,6.416,12.581Z" transform="translate(-127.436 -10.02)" fill="#efb789"/>
        <path id="Path_1049119" data-name="Path 1049119" d="M125.746,177.18h8.762V191h-8.762Z" transform="translate(-110.105 -143.446)" fill="#ffda8f"/>
        <path id="Path_1049120" data-name="Path 1049120" d="M342.836,177.18H351.6V191h-8.762Z" transform="translate(-283.385 -143.446)" fill="#ffda8f"/>
        <path id="Path_1049121" data-name="Path 1049121" d="M134.508,245.646h-8.762v7.1a4.372,4.372,0,0,0,4.372,4.373h.017a4.372,4.372,0,0,0,4.373-4.373v-7.1Z" transform="translate(-110.105 -198.096)" fill="#b5b4ee"/>
        <path id="Path_1049122" data-name="Path 1049122" d="M351.6,245.646h-8.762v7.1a4.372,4.372,0,0,0,4.373,4.373h.017a4.372,4.372,0,0,0,4.372-4.373v-7.1Z" transform="translate(-283.385 -198.096)" fill="#b5b4ee"/>
        <circle id="Ellipse_12185" data-name="Ellipse 12185" cx="5.767" cy="5.767" r="5.767" transform="translate(36.16 60.74)" fill="#ffda8f"/>
      </g>
      <g id="Group_1183815" data-name="Group 1183815" transform="translate(38.225 0)">
        <circle id="Ellipse_12186" data-name="Ellipse 12186" cx="2.018" cy="2.018" r="2.018" transform="translate(41.93 91.196)"/>
        <path id="Path_1049123" data-name="Path 1049123" d="M126.1,93.944l-4.008-58.326a2.022,2.022,0,0,0-2.017-1.883H106.1V19.814C106.1,8.889,95.366,0,82.173,0S58.246,8.889,58.246,19.814V33.734H44.271a2.022,2.022,0,0,0-2.017,1.883L38.245,93.944A8.779,8.779,0,0,0,47,103.324h70.34a8.779,8.779,0,0,0,8.758-9.38ZM101.719,51.595h4.718V56.66a2.359,2.359,0,1,1-4.718,0Zm4.718-4.044h-4.718V37.778h4.718ZM82.173,4.044c9.007,0,16.634,4.776,19.069,11.3-4.336-3.509-11.2-5.737-19.069-5.737S67.439,11.837,63.1,15.346c2.435-6.526,10.061-11.3,19.069-11.3ZM62.29,24.355c0-5.8,9.105-10.7,19.883-10.7s19.883,4.9,19.883,10.7v9.378H62.29ZM57.909,51.595h4.718V56.66a2.359,2.359,0,1,1-4.718,0Zm4.718-13.817v9.773H57.909V37.778Zm58.177,60a4.687,4.687,0,0,1-3.461,1.5H47a4.734,4.734,0,0,1-4.723-5.059l3.879-56.443h7.706V56.66a6.4,6.4,0,1,0,12.806,0V37.778h31V56.66a6.4,6.4,0,1,0,12.806,0V37.778h7.707l3.879,56.443A4.687,4.687,0,0,1,120.8,97.777Z" transform="translate(-38.225 0)"/>
        <path id="Path_1049124" data-name="Path 1049124" d="M146.566,451.883h-14.29a2.022,2.022,0,1,0,0,4.044h14.29a2.022,2.022,0,1,0,0-4.044Z" transform="translate(-111.682 -360.691)"/>
        <path id="Path_1049125" data-name="Path 1049125" d="M307.145,451.883H292.839a2.022,2.022,0,1,0,0,4.044h14.306a2.022,2.022,0,1,0,0-4.044Z" transform="translate(-239.843 -360.691)"/>
        <path id="Path_1049126" data-name="Path 1049126" d="M225.193,300.984a7.789,7.789,0,1,0,7.789,7.789A7.8,7.8,0,0,0,225.193,300.984Zm0,11.534a3.745,3.745,0,1,1,3.745-3.745A3.749,3.749,0,0,1,225.193,312.518Z" transform="translate(-181.245 -240.244)"/>
      </g>
    </g>
  </g>
</svg>
