<svg xmlns="http://www.w3.org/2000/svg" width="262.881" height="106.068" viewBox="0 0 262.881 106.068">
  <g id="Group_1184283" data-name="Group 1184283" transform="translate(-1157 -1783.036)">
    <rect id="Rectangle_408925" data-name="Rectangle 408925" width="262.881" height="69.762" rx="20" transform="translate(1157 1819.342)" fill="#4c4b48"/>
    <g id="Group_1184282" data-name="Group 1184282" transform="translate(1221.881 1783.036)">
      <g id="Group_1184280" data-name="Group 1184280" transform="translate(1.73 1.736)">
        <path id="Path_1049760" data-name="Path 1049760" d="M63.774,12.242A25.074,25.074,0,0,0,38.727,37.289V48.146h6.938V37.289a18.11,18.11,0,1,1,36.219,0V48.146h6.938V37.289A25.074,25.074,0,0,0,63.774,12.242Z" transform="translate(-14.591 -12.242)" fill="#ededed"/>
        <g id="Group_1184278" data-name="Group 1184278" transform="translate(0 31.661)">
          <path id="Path_1049761" data-name="Path 1049761" d="M102.9,51.993a7.929,7.929,0,0,0-7.816-6.6H32.025a7.929,7.929,0,0,0-7.814,6.6l-9.762,57.35a4.955,4.955,0,0,0,4.886,5.787h88.448a4.955,4.955,0,0,0,4.886-5.787Z" transform="translate(-14.374 -44.199)" fill="#7fc5a7"/>
          <path id="Path_1049762" data-name="Path 1049762" d="M104.81,44.188H22.3c-4.379,0-7.929,4.015-7.929,8.967V66.7a4.46,4.46,0,0,0,2.78,4.278L62.3,86.969,109.9,70.95a4.45,4.45,0,0,0,2.833-4.3v-13.5c0-4.952-3.55-8.967-7.929-8.967Z" transform="translate(-14.374 -44.188)" fill="#8ecea3"/>
        </g>
        <g id="Group_1184279" data-name="Group 1184279" transform="translate(40.984 58.545)">
          <path id="Path_1049763" data-name="Path 1049763" d="M59.227,74.288v25.846l3.469,2.973,3.469-2.973V74.288L62.7,71.315Z" transform="translate(-55.758 -71.315)" fill="#ffc656"/>
          <ellipse id="Ellipse_12197" data-name="Ellipse 12197" cx="6.938" cy="6.938" rx="6.938" ry="6.938" transform="translate(0 8.958)" fill="#fed065"/>
        </g>
      </g>
      <g id="Group_1184281" data-name="Group 1184281" transform="translate(0 0)">
        <path id="Path_1049764" data-name="Path 1049764" d="M91.172,114.01H60.944a1.734,1.734,0,1,0,0,3.469H91.172a1.734,1.734,0,1,0,0-3.469Z" transform="translate(-13.043 -11.414)"/>
        <path id="Path_1049765" data-name="Path 1049765" d="M49.455,114.01H33.984a1.734,1.734,0,1,0,0,3.469H49.455a1.734,1.734,0,1,0,0-3.469Z" transform="translate(-12.803 -11.414)"/>
        <path id="Path_1049766" data-name="Path 1049766" d="M104.79,42.155H90.32V37.269a26.779,26.779,0,1,0-53.557,0v4.886H22.293c-5.328,0-9.663,4.8-9.663,10.7V66.4a6.17,6.17,0,0,0,3.935,5.917l2.232.793-6.068,35.638a6.691,6.691,0,0,0,6.6,7.814h3.231a1.734,1.734,0,1,0,0-3.469H19.32a3.222,3.222,0,0,1-3.171-3.766l5.966-35.045L53.7,85.459a8.523,8.523,0,0,0,3.378,8.127v6a1.735,1.735,0,0,0,.606,1.317l3.469,2.973a1.735,1.735,0,0,0,2.258,0l3.469-2.973a1.735,1.735,0,0,0,.606-1.317v-6A8.548,8.548,0,0,0,70.876,85.6l34.067-11.464,5.993,35.183a3.224,3.224,0,0,1-3.171,3.766h-5.748a1.734,1.734,0,1,0,0,3.469h5.748a6.691,6.691,0,0,0,6.6-7.814l-6.083-35.722,2.159-.726a6.145,6.145,0,0,0,4.019-5.946V52.858c0-5.9-4.332-10.7-9.664-10.7ZM40.231,37.269a23.31,23.31,0,1,1,46.62,0v4.886H83.382V37.269a19.841,19.841,0,1,0-39.682,0v4.886H40.231Zm39.682,0v4.886H47.169V37.269a16.372,16.372,0,1,1,32.745,0Zm-15.9,61.521-1.734,1.487-1.734-1.487V95.165a8.686,8.686,0,0,0,3.469,0ZM62.28,91.867a5.2,5.2,0,1,1,5.2-5.2,5.2,5.2,0,0,1-5.2,5.2Zm-1.731-13.7V74.538l1.734-1.487,1.734,1.487v3.633a8.686,8.686,0,0,0-3.469,0Zm50.436-11.823A2.73,2.73,0,0,1,109.331,69L69.77,82.316a8.722,8.722,0,0,0-2.279-2.567V73.74a1.735,1.735,0,0,0-.605-1.317L63.416,69.45a1.736,1.736,0,0,0-2.258,0l-3.469,2.973a1.735,1.735,0,0,0-.606,1.317v6a8.744,8.744,0,0,0-2.213,2.447L17.717,69.042A2.748,2.748,0,0,1,16.1,66.4V52.858c0-3.989,2.775-7.235,6.194-7.235h82.5c3.415,0,6.194,3.246,6.194,7.235Z" transform="translate(-12.628 -10.49)"/>
      </g>
    </g>
  </g>
</svg>
