<svg xmlns="http://www.w3.org/2000/svg" xmlns:xlink="http://www.w3.org/1999/xlink" width="118" height="118" viewBox="0 0 118 118">
  <defs>
    <filter id="Ellipse_12115" x="0" y="0" width="118" height="118" filterUnits="userSpaceOnUse">
      <feOffset dy="3" input="SourceAlpha"/>
      <feGaussianBlur stdDeviation="3" result="blur"/>
      <feFlood flood-opacity="0.161"/>
      <feComposite operator="in" in2="blur"/>
      <feComposite in="SourceGraphic"/>
    </filter>
  </defs>
  <g id="Group_1184444" data-name="Group 1184444" transform="translate(-901.041 -1710)">
    <g transform="matrix(1, 0, 0, 1, 901.04, 1710)" filter="url(#Ellipse_12115)">
      <circle id="Ellipse_12115-2" data-name="Ellipse 12115" cx="50" cy="50" r="50" transform="translate(9 6)" fill="#f8de53"/>
    </g>
    <g id="women_bag" data-name="women bag" transform="translate(923.025 1731)">
      <path id="Path_1050127" data-name="Path 1050127" d="M54.67,57.766H9L11.664,20.56l4.948,3.714H47.058l4.948-3.714C54.822,59.76,54.38,53.67,54.67,57.766Z" transform="translate(4.693 9.694)" fill="#fc6" opacity="0.99"/>
      <path id="Path_1050128" data-name="Path 1050128" d="M52.216,54.721H42.61A29.35,29.35,0,0,1,13.29,26.512c1.735,1.157-2.862.807,31.527.807L49.765,23.6c-.228-3.319-.274-2.832,0-3.045Z" transform="translate(6.933 9.694)" fill="#ffde76" opacity="0.99"/>
      <path id="Path_1050129" data-name="Path 1050129" d="M51.091,22.419l-4.948,3.714H15.7L10.75,22.419c.335-4.658.244-3.364.381-5.419h39.58C50.954,20.5,50.711,17.152,51.091,22.419Z" transform="translate(5.607 7.835)" fill="#ffba55" opacity="0.99"/>
      <path id="Path_1050130" data-name="Path 1050130" d="M49.447,19.527,44.7,23.089H20.34A6.865,6.865,0,0,1,13.52,17l35.744,0C49.386,18.842,49.355,18.279,49.447,19.527Z" transform="translate(7.054 7.835)" fill="#fc6" opacity="0.99"/>
      <path id="Path_1050131" data-name="Path 1050131" d="M52.187,21.045C40.784,56.621,43.312,48.751,40.008,59.1,36.963,17.437,37.451,23.328,37.07,18Z" transform="translate(19.354 8.357)" fill="#fc6" opacity="0.99"/>
      <path id="Path_1050132" data-name="Path 1050132" d="M51.126,20.825,41.429,51.1C38.933,16.091,39.42,22.88,39.1,18.42Z" transform="translate(20.414 8.576)" fill="#ffde76" opacity="0.99"/>
      <path id="Path_1050133" data-name="Path 1050133" d="M16.117,18c-.563,7.992-1.522,21.023-2.938,41.1L1,21.045Z" transform="translate(0.514 8.357)" fill="#fc6" opacity="0.99"/>
      <path id="Path_1050134" data-name="Path 1050134" d="M14.821,18c-.365,5.206,0-.487-2.207,30.827L3.48,20.268Z" transform="translate(1.809 8.357)" fill="#ffde76" opacity="0.99"/>
      <rect id="Rectangle_410411" data-name="Rectangle 410411" width="6.089" height="9.134" transform="translate(33.483 30.924)" fill="#dad7e5" opacity="0.99"/>
      <path id="Path_1050135" data-name="Path 1050135" d="M27.567,21v7.612A4.567,4.567,0,0,1,23,24.045V21Z" transform="translate(12.005 9.924)" fill="#edebf2" opacity="0.99"/>
      <path id="Path_1050136" data-name="Path 1050136" d="M20.089,29c0,3.045.091,3.532-.274,4.293A3.045,3.045,0,0,1,14,32.045V29Z" transform="translate(7.304 14.103)" fill="#dad7e5" opacity="0.99"/>
      <path id="Path_1050137" data-name="Path 1050137" d="M19.568,29c0,3.045.091,3.532-.274,4.293A3.136,3.136,0,0,1,15,30.248V29Z" transform="translate(7.826 14.103)" fill="#edebf2" opacity="0.99"/>
      <path id="Path_1050138" data-name="Path 1050138" d="M36.089,29c0,3.045.091,3.532-.274,4.293A3.045,3.045,0,0,1,30,32.045V29Z" transform="translate(15.661 14.103)" fill="#dad7e5" opacity="0.99"/>
      <path id="Path_1050139" data-name="Path 1050139" d="M35.567,29c0,3.045.091,3.532-.274,4.293A3.045,3.045,0,0,1,31,30.522V29Z" transform="translate(16.184 14.103)" fill="#edebf2" opacity="0.99"/>
      <path id="Path_1050140" data-name="Path 1050140" d="M72.85,28.641c-.487-.852,0-.548-14.98-3.532v-.381a1.522,1.522,0,0,0-1.553-1.416H50.228V15.7a13.7,13.7,0,0,0-27.4,0v7.612H16.737a1.522,1.522,0,0,0-1.522,1.416v.381C-.008,28.138.677,27.879.2,28.641S-.876,27.027,12.246,66.394c-.076.974-.213,1.522.335,2.1s-2.695.487,46.781.487a1.522,1.522,0,0,0,1.522-1.629C60.778,66,59.469,70.4,73.063,29.889A1.522,1.522,0,0,0,72.85,28.641ZM54.8,26.357c0,.457,0-.2.228,2.162-4.567,4.567-3.638,3.928-4.826,3.928V26.357Zm-19.79,6.089H38.05v6.089H35.005ZM39.572,29.4H33.483a1.522,1.522,0,0,0-1.522,1.522v1.522H25.871V26.357H47.184v6.089H41.094V30.924A1.522,1.522,0,0,0,39.572,29.4Zm-13.7-13.7a10.656,10.656,0,0,1,21.312,0v7.612H25.871ZM22.826,32.446c-1.187,0-.259.639-4.826-3.928a18.366,18.366,0,0,1,.259-2.162h4.567ZM3.508,30.559l11.463-2.3-2.162,30.2ZM15.321,65.937l2.39-33.4c3.38,3.364,2.481,2.953,5.115,2.953V41.58H21.3A1.522,1.522,0,0,0,19.782,43.1v3.045a4.567,4.567,0,0,0,9.134,0V43.1a1.522,1.522,0,0,0-1.522-1.522H25.871V35.491H31.96v4.567a1.522,1.522,0,0,0,1.522,1.522h6.089a1.522,1.522,0,0,0,1.522-1.522V35.491h6.089V41.58H45.661A1.522,1.522,0,0,0,44.139,43.1v3.045a4.567,4.567,0,0,0,9.134,0V43.1a1.522,1.522,0,0,0-1.522-1.522H50.228V35.491c2.6,0,1.72.426,5.115-2.953l2.39,33.4Zm10.55-21.312v1.522a1.522,1.522,0,0,1-3.045,0V44.625Zm24.357,0v1.522a1.522,1.522,0,0,1-3.045,0V44.625ZM60.245,58.463l-2.162-30.2,11.463,2.3Z" transform="translate(0 0)" opacity="0.99"/>
    </g>
  </g>
</svg>
