<svg xmlns="http://www.w3.org/2000/svg" width="86" height="86" viewBox="0 0 86 86">
  <g id="Group_1184025" data-name="Group 1184025" transform="translate(-198.925 -974)">
    <circle id="Ellipse_12153" data-name="Ellipse 12153" cx="43" cy="43" r="43" transform="translate(198.925 974)" fill="#95c072"/>
    <g id="Group_1184024" data-name="Group 1184024" transform="translate(205.195 984)">
      <g id="Group_1184023" data-name="Group 1184023" transform="translate(5.69 0.96)">
        <path id="Path_1049360" data-name="Path 1049360" d="M88.964,309.239v21.755a3.071,3.071,0,0,1-3.071,3.071H34.8a3.071,3.071,0,0,1-3.071-3.071V309.239Z" transform="translate(-29.239 -270.634)" fill="#8bb3ea"/>
        <g id="Group_1184022" data-name="Group 1184022" transform="translate(10.147)">
          <path id="Path_1049361" data-name="Path 1049361" d="M153.891,30.628h-3.838V24.954a13.614,13.614,0,1,0-27.227,0v5.674h-3.838V24.954a17.452,17.452,0,1,1,34.9,0Z" transform="translate(-115.475 -7.501)" fill="#ffe07d"/>
          <path id="Path_1049362" data-name="Path 1049362" d="M102.166,172.808H91.539v-3.395a1.919,1.919,0,0,1,1.919-1.919h6.789a1.919,1.919,0,0,1,1.919,1.919v3.395Z" transform="translate(-91.539 -147.024)" fill="#ffe07d"/>
          <path id="Path_1049363" data-name="Path 1049363" d="M344.91,172.808H334.283v-3.395a1.919,1.919,0,0,1,1.919-1.919h6.789a1.919,1.919,0,0,1,1.919,1.919Z" transform="translate(-303.226 -147.024)" fill="#ffe07d"/>
        </g>
        <path id="Path_1049364" data-name="Path 1049364" d="M38,334.065H34.8a3.071,3.071,0,0,1-3.071-3.071V309.239h3.2v21.755A3.071,3.071,0,0,0,38,334.065Z" transform="translate(-29.239 -270.634)" fill="#739ad6"/>
        <path id="Path_1049365" data-name="Path 1049365" d="M96.652,167.5a1.919,1.919,0,0,0-1.919,1.919v3.394h-3.2v-3.394a1.919,1.919,0,0,1,1.919-1.919Z" transform="translate(-81.388 -147.029)" fill="#ffd064"/>
        <path id="Path_1049366" data-name="Path 1049366" d="M339.4,167.5a1.918,1.918,0,0,0-1.919,1.919v3.394h-3.2v-3.394A1.918,1.918,0,0,1,336.2,167.5Z" transform="translate(-293.08 -147.029)" fill="#ffd064"/>
        <path id="Path_1049367" data-name="Path 1049367" d="M50.624,365.309h54.813v3.136H50.624Z" transform="translate(-45.712 -319.53)" fill="#739ad6"/>
        <path id="Path_1049368" data-name="Path 1049368" d="M71.379,219.382H15.3a3.071,3.071,0,0,1-3.043-3.484l2.306-16.974a1.919,1.919,0,0,1,1.9-1.661H70.214a1.919,1.919,0,0,1,1.9,1.661L74.422,215.9A3.071,3.071,0,0,1,71.379,219.382Z" transform="translate(-12.229 -172.985)" fill="#8bb3ea"/>
        <path id="Path_1049369" data-name="Path 1049369" d="M18.5,219.378H15.3a3.07,3.07,0,0,1-3.042-3.484l2.306-16.974a1.92,1.92,0,0,1,1.9-1.661h3.2a1.92,1.92,0,0,0-1.9,1.661l-2.306,16.974A3.07,3.07,0,0,0,18.5,219.378Z" transform="translate(-12.231 -172.981)" fill="#739ad6"/>
        <path id="Path_1049370" data-name="Path 1049370" d="M174.621,342.5h-18.44a1.919,1.919,0,0,1-1.919-1.919V335.6a1.919,1.919,0,0,1,1.919-1.919h18.44a1.919,1.919,0,0,1,1.919,1.919v4.982A1.919,1.919,0,0,1,174.621,342.5Z" transform="translate(-136.09 -291.95)" fill="#ffe07d"/>
        <path id="Path_1049371" data-name="Path 1049371" d="M159.382,342.5h-3.2a1.919,1.919,0,0,1-1.919-1.919V335.6a1.919,1.919,0,0,1,1.919-1.919h3.2a1.919,1.919,0,0,0-1.919,1.919v4.982A1.919,1.919,0,0,0,159.382,342.5Z" transform="translate(-136.092 -291.947)" fill="#ffd064"/>
      </g>
      <path id="Path_1049372" data-name="Path 1049372" d="M68.833,43.743,66.526,26.769a2.889,2.889,0,0,0-2.852-2.491H58.481v-.929A2.882,2.882,0,0,0,55.6,20.471h-.39V18.412a18.411,18.411,0,1,0-36.823,0v2.059h-.633a2.882,2.882,0,0,0-2.879,2.879v.929H9.926a2.889,2.889,0,0,0-2.852,2.491L4.767,43.743a4.025,4.025,0,0,0,2.458,4.268V61.32a4.035,4.035,0,0,0,4.03,4.03H55.283a.96.96,0,0,0,0-1.919H11.255A2.113,2.113,0,0,1,9.144,61.32v-13H22.9v1.277a2.882,2.882,0,0,0,2.879,2.879h18.44A2.882,2.882,0,0,0,47.1,49.593V48.316H64.456v13a2.113,2.113,0,0,1-2.111,2.111H59.76a.96.96,0,0,0,0,1.919h2.584a4.035,4.035,0,0,0,4.03-4.03V48.011a4.025,4.025,0,0,0,2.458-4.268ZM56.562,23.349v.929H47.853v-.929a.961.961,0,0,1,.96-.96H55.6A.961.961,0,0,1,56.562,23.349ZM20.308,18.412a16.492,16.492,0,1,1,32.985,0v2.059H51.374V18.412a14.573,14.573,0,1,0-29.146,0v2.059H20.308ZM16.8,23.349a.961.961,0,0,1,.96-.96h6.789a.961.961,0,0,1,.96.96v.929H16.8ZM45.18,49.593a.961.961,0,0,1-.96.96H25.781a.961.961,0,0,1-.96-.96V44.611a.961.961,0,0,1,.96-.96h18.44a.961.961,0,0,1,.96.96Zm21.25-3.918a2.11,2.11,0,0,1-1.59.722H47.1V44.611a2.882,2.882,0,0,0-2.879-2.879H25.781A2.882,2.882,0,0,0,22.9,44.611V46.4H8.76A2.11,2.11,0,0,1,6.669,44L8.975,27.028a.963.963,0,0,1,.95-.83H30.6a.96.96,0,0,0,0-1.919H27.423v-.929a2.882,2.882,0,0,0-2.879-2.879h-.4V18.412a12.654,12.654,0,1,1,25.308,0v2.059h-.642a2.882,2.882,0,0,0-2.879,2.879v.929H35.077a.96.96,0,1,0,0,1.919h28.6a.963.963,0,0,1,.95.83L66.932,44A2.11,2.11,0,0,1,66.43,45.674Z"/>
    </g>
  </g>
</svg>
