<svg xmlns="http://www.w3.org/2000/svg" width="76.345" height="76.345" viewBox="0 0 76.345 76.345">
  <g id="Group_1182010" data-name="Group 1182010" transform="translate(-1025.037 -3092.655)">
    <g id="Group_1111311" data-name="Group 1111311">
      <g id="Group_1098742" data-name="Group 1098742" transform="translate(1025.482 3093.101)">
        <g id="Rectangle_400898" data-name="Rectangle 400898" transform="translate(-0.445 -0.445)" fill="#f88e15" stroke="#c77211" stroke-width="2" opacity="0.859">
          <rect width="76.345" height="76.345" rx="38.172" stroke="none"/>
          <rect x="1" y="1" width="74.345" height="74.345" rx="37.172" fill="none"/>
        </g>
        <g id="Rectangle_400907" data-name="Rectangle 400907" transform="translate(-0.446 -0.445)" fill="none" stroke="#c77211" stroke-width="2">
          <rect width="76.345" height="76.345" rx="38.172" stroke="none"/>
          <rect x="1" y="1" width="74.345" height="74.345" rx="37.172" fill="none"/>
        </g>
      </g>
    </g>
    <g id="hand-bag_567739" transform="translate(1036.502 3090.95)">
      <path id="Path_1048612" data-name="Path 1048612" d="M58.88,195.286a9.588,9.588,0,0,1-1.551,3.162H9.67a9.567,9.567,0,0,1-1.55-3.162c-1.505-5.2.406-12.246,2.606-17.506a46.076,46.076,0,0,1,2.02-4.238c.344-.633.671-1.2.965-1.705a5.868,5.868,0,0,1,3.936-2.825,55.661,55.661,0,0,1,15.263-.533,5.561,5.561,0,0,0,1.179,0,55.661,55.661,0,0,1,15.263.533,5.867,5.867,0,0,1,3.936,2.825c.294.5.619,1.071.965,1.7a46.627,46.627,0,0,1,2.02,4.237C58.474,183.04,60.385,190.087,58.88,195.286Z" transform="translate(-6.792 -139.47)" fill="#b1e36c"/>
      <g id="Group_1181896" data-name="Group 1181896" transform="translate(1.328 28.716)">
        <path id="Path_1048613" data-name="Path 1048613" d="M63.492,427.952a9.589,9.589,0,0,1-1.551,3.162H14.282a9.567,9.567,0,0,1-1.55-3.162Z" transform="translate(-12.732 -400.851)" fill="#9ed554"/>
        <path id="Path_1048614" data-name="Path 1048614" d="M83.261,177.774a29.321,29.321,0,0,1-7.493,10.249,23.089,23.089,0,0,1-15.281,6.065,23.094,23.094,0,0,1-15.279-6.063,29.353,29.353,0,0,1-7.493-10.248,46.3,46.3,0,0,1,2.02-4.238c.344-.633.671-1.2.965-1.7a5.864,5.864,0,0,1,3.936-2.825,55.637,55.637,0,0,1,15.263-.534,5.546,5.546,0,0,0,1.18,0,55.629,55.629,0,0,1,15.263.534,5.864,5.864,0,0,1,3.936,2.825c.294.5.619,1.07.965,1.7A46.694,46.694,0,0,1,83.261,177.774Z" transform="translate(-35.109 -168.183)" fill="#9ed554"/>
      </g>
      <path id="Path_1048615" data-name="Path 1048615" d="M98.586,173.535c-2.638,8.969-10.93,17.2-20.754,17.2s-18.114-8.225-20.752-17.193c.344-.633.671-1.2.965-1.705a5.905,5.905,0,0,1,3.349-2.68c.193-.057.387-.106.587-.145l.16-.029a51.08,51.08,0,0,1,9.41-.8c.255,0,.5,0,.749.006,2.294.034,4.072.193,4.945.287a5.561,5.561,0,0,0,1.179,0,57.207,57.207,0,0,1,6.821-.286q.368.006.748.017a48.74,48.74,0,0,1,7.694.8,5.679,5.679,0,0,1,1.715.631,5.809,5.809,0,0,1,.735.49,5.994,5.994,0,0,1,1.486,1.7C97.915,172.332,98.241,172.9,98.586,173.535Z" transform="translate(-51.125 -139.464)" fill="#fedc63"/>
      <path id="Path_1048616" data-name="Path 1048616" d="M98.586,200.913c-2.638,8.969-10.93,17.2-20.754,17.2s-18.114-8.225-20.752-17.193c.344-.633.671-1.2.965-1.705.094-.16.194-.313.3-.462,2.554,8.878,10.313,16.962,19.488,16.962s16.935-8.084,19.489-16.963c.107.149.206.3.3.463C97.915,199.711,98.241,200.281,98.586,200.913Z" transform="translate(-51.125 -166.842)" fill="#ffe497"/>
      <g id="Group_1181897" data-name="Group 1181897" transform="translate(11.015 28.716)">
        <path id="Path_1048617" data-name="Path 1048617" d="M105.586,168.98a51.077,51.077,0,0,1,9.41-.8v1.566a4.7,4.7,0,1,1-9.41,0Z" transform="translate(-105.586 -168.183)" fill="#f4cc4d"/>
        <path id="Path_1048618" data-name="Path 1048618" d="M343.609,169.849v.109a4.7,4.7,0,1,1-9.409,0v-1.542a48.744,48.744,0,0,1,7.694.8A5.681,5.681,0,0,1,343.609,169.849Z" transform="translate(-310.35 -168.392)" fill="#f4cc4d"/>
      </g>
      <path id="Path_1048619" data-name="Path 1048619" d="M67.587,458.183H22.371a1.971,1.971,0,0,1-1.971-1.971h0a1.971,1.971,0,0,1,1.971-1.971H67.587a1.971,1.971,0,0,1,1.971,1.971h0A1.971,1.971,0,0,1,67.587,458.183Z" transform="translate(-18.272 -395.681)" fill="#fedc63"/>
      <g id="Group_1181898" data-name="Group 1181898" transform="translate(13.623 13.253)">
        <path id="Path_1048620" data-name="Path 1048620" d="M156.529,39.094a2.1,2.1,0,0,1-2.1-2.1V33.99a9.828,9.828,0,0,0-19.656,0V37a2.1,2.1,0,1,1-4.194,0V33.99a14.022,14.022,0,0,1,28.045,0V37A2.1,2.1,0,0,1,156.529,39.094Z" transform="translate(-130.582 -19.968)" fill="#efefef"/>
        <path id="Path_1048621" data-name="Path 1048621" d="M230.782,334.917h-.447a2.74,2.74,0,0,1-2.74-2.74V328.6a2.74,2.74,0,0,1,2.74-2.74h.447a2.74,2.74,0,0,1,2.74,2.74v3.579A2.74,2.74,0,0,1,230.782,334.917Z" transform="translate(-217.473 -293.945)" fill="#efefef"/>
      </g>
      <path id="Path_1048622" data-name="Path 1048622" d="M52.429,44.737a53.211,53.211,0,0,0-4.213-10.866.785.785,0,0,0-.162-.309c-.305-.578-.6-1.111-.884-1.59a6.648,6.648,0,0,0-4.463-3.2l-.258-.048V27.275A14.8,14.8,0,0,0,15.58,18.7a.782.782,0,1,0,1.274.908,13.235,13.235,0,0,1,24.03,7.663v3.007a1.315,1.315,0,1,1-2.629,0V27.275a10.61,10.61,0,0,0-21.22,0v3.007a1.315,1.315,0,0,1-2.63,0V27.275a13.149,13.149,0,0,1,.866-4.71.782.782,0,1,0-1.462-.558,14.714,14.714,0,0,0-.969,5.269v1.149c-.725.1-1.44.219-2.132.351a6.648,6.648,0,0,0-4.463,3.2c-.282.48-.58,1.016-.887,1.6a.785.785,0,0,0-.158.3A53.165,53.165,0,0,0,.986,44.737C-.58,50.868-.279,55.631,1.875,58.911A2.752,2.752,0,0,0,4.1,63.284h6.06a.782.782,0,1,0,0-1.564H4.1a1.189,1.189,0,0,1,0-2.378H49.315a1.189,1.189,0,0,1,0,2.378h-35.8a.782.782,0,1,0,0,1.564h35.8a2.751,2.751,0,0,0,2.225-4.373C53.694,55.631,53.995,50.868,52.429,44.737ZM27.645,18.23a9.055,9.055,0,0,1,9.046,9.045v.763a59.33,59.33,0,0,0-9.476.192,4.811,4.811,0,0,1-1.014,0,59.141,59.141,0,0,0-7.6-.275v-.681A9.056,9.056,0,0,1,27.645,18.23ZM44.008,57.777a8.766,8.766,0,0,0,3.8-5.32.782.782,0,1,0-1.519-.372,7.211,7.211,0,0,1-3.555,4.646,9.325,9.325,0,0,1-2.71,1.047h-27.7c-.58-.293-2.776-1.51-3.4-3.4a.782.782,0,1,0-1.485.491,6.732,6.732,0,0,0,2.088,2.91H4.1a2.737,2.737,0,0,0-.977.18c-3.59-5.656-.183-15.736,2.7-21.819a26.684,26.684,0,0,0,7.295,10.484,21.507,21.507,0,0,0,9.845,5.045,3.527,3.527,0,0,0,3.518,3.341h.447a3.527,3.527,0,0,0,3.518-3.343,20.044,20.044,0,0,0,5.12-1.817.782.782,0,1,0-.713-1.392,18.59,18.59,0,0,1-4.4,1.608V47.906a3.526,3.526,0,0,0-3.522-3.522h-.447a3.526,3.526,0,0,0-3.522,3.522v2.156c-7.9-1.787-14-8.971-16.156-15.878.281-.532.547-1.009.789-1.419A5.083,5.083,0,0,1,11,30.312c.6-.115,1.214-.218,1.838-.308v.278a2.88,2.88,0,1,0,5.759,0v-.761a57.441,57.441,0,0,1,7.435.266,6.376,6.376,0,0,0,1.345,0,57.7,57.7,0,0,1,9.311-.18v.676a2.879,2.879,0,0,0,5.757.038,5.087,5.087,0,0,1,3.373,2.444c.252.429.517.9.789,1.413a24.874,24.874,0,0,1-9.126,12.675.782.782,0,1,0,.909,1.274,26.486,26.486,0,0,0,9.2-12,50.572,50.572,0,0,1,3.321,9c1,3.915,1.662,9.226-.621,12.832a2.739,2.739,0,0,0-.977-.18Zm-17.3-6.289a.782.782,0,0,0-.782.782v1.09a1.961,1.961,0,0,1-1.4-1.876V47.906a1.96,1.96,0,0,1,1.958-1.958h.447a1.96,1.96,0,0,1,1.958,1.958v3.579a1.961,1.961,0,0,1-1.4,1.876v-1.09A.782.782,0,0,0,26.707,51.488Z" transform="translate(0)"/>
    </g>
  </g>
</svg>
