<svg xmlns="http://www.w3.org/2000/svg" xmlns:xlink="http://www.w3.org/1999/xlink" width="118" height="118" viewBox="0 0 118 118">
  <defs>
    <filter id="Ellipse_12115" x="0" y="0" width="118" height="118" filterUnits="userSpaceOnUse">
      <feOffset dy="3" input="SourceAlpha"/>
      <feGaussianBlur stdDeviation="3" result="blur"/>
      <feFlood flood-opacity="0.161"/>
      <feComposite operator="in" in2="blur"/>
      <feComposite in="SourceGraphic"/>
    </filter>
  </defs>
  <g id="Group_1184029" data-name="Group 1184029" transform="translate(9 6)">
    <g transform="matrix(1, 0, 0, 1, -9, -6)" filter="url(#Ellipse_12115)">
      <circle id="Ellipse_12115-2" data-name="Ellipse 12115" cx="50" cy="50" r="50" transform="translate(9 6)" fill="#f8de53"/>
    </g>
    <g id="Group_1184028" data-name="Group 1184028" transform="translate(17.619 18)">
      <path id="Path_1049382" data-name="Path 1049382" d="M147.948,42.286c-13.35,13.35-20.038,16.455-24.131,12.363-3.947-3.947,1.221-10.614,18.222-27.615S165.707,4.865,169.654,8.812c4.092,4.092.987,10.781-12.363,24.131Z" transform="translate(-121.603 -6.598)" fill="#6171a3"/>
      <path id="Path_1049383" data-name="Path 1049383" d="M205.384,306.6c4.092,4.092,10.781.987,24.131-12.363l-14.687-14.687C201.478,292.9,194.789,296,190.7,291.91Z" transform="translate(-188.483 -243.859)" fill="#cb775a"/>
      <path id="Path_1049384" data-name="Path 1049384" d="M35.236,65.551A93.926,93.926,0,0,1,22.9,76.345a5.1,5.1,0,0,1-6.5-.6L9.035,68.371a5.1,5.1,0,0,1,.552-7.7,105.282,105.282,0,0,0,10.961-9.812l9.343-9.343c13.35-13.35,16.455-20.039,12.363-24.131L56.942,32.077c4.092,4.092.987,10.781-12.363,24.131Z" transform="translate(5.796 -15.176)" fill="#d2996f"/>
      <path id="Path_1049385" data-name="Path 1049385" d="M92.569,184.5l10.612-10.612a10.483,10.483,0,0,0,0-14.808l-5.888-5.888a10.483,10.483,0,0,0-14.808,0L71.873,163.806a10.483,10.483,0,0,0,0,14.808l5.888,5.888A10.483,10.483,0,0,0,92.569,184.5Zm-5.393-26.617a3.842,3.842,0,0,1,5.427,0l5.888,5.888a3.842,3.842,0,0,1,0,5.427L87.878,179.811a3.842,3.842,0,0,1-5.427,0l-5.888-5.888a3.842,3.842,0,0,1,0-5.427Z" transform="translate(-49.648 -130.969)" fill="#f5ea72"/>
      <path id="Path_1049386" data-name="Path 1049386" d="M80.794,163.781l-5.888-5.888a3.843,3.843,0,0,0-4.24-.806c1.207-1.7.878-5.554-1.856-6.387A10.482,10.482,0,0,1,79.6,153.2l5.888,5.888a10.483,10.483,0,0,1,0,14.808L74.872,184.51a10.409,10.409,0,0,1-3.56,2.333,4.944,4.944,0,0,0-1.13-7.024l10.612-10.612A3.842,3.842,0,0,0,80.794,163.781Z" transform="translate(-31.951 -130.978)" fill="#ebca5f"/>
      <path id="Path_1049387" data-name="Path 1049387" d="M240.508,330.009l8.179-8.179a2.653,2.653,0,1,0-3.752-3.752l-8.179,8.179a2.653,2.653,0,0,0,3.752,3.752Z" transform="translate(-214.214 -276.792)" fill="#ebca5f"/>
      <path id="Path_1049388" data-name="Path 1049388" d="M52.873,17.951a.958.958,0,0,1,1.354,0l1.708,1.708a.958.958,0,0,1-1.354,1.354l-1.708-1.708A.957.957,0,0,1,52.873,17.951ZM40.122,33.979l1.708,1.708a.958.958,0,1,1-1.354,1.354l-1.708-1.708a.958.958,0,0,1,1.354-1.354ZM2.678,38.65c3.136-4.6,9.1-10.856,17.08-18.84C26.747,12.821,31.246,8.58,34.8,5.63A.958.958,0,1,1,36.025,7.1c-3.508,2.911-7.968,7.116-14.913,14.061C11.755,30.522,6.872,35.9,4.26,39.73c-3.24,4.748-2.51,6.555-1.369,7.7C4.559,49.093,7.424,50.3,14.84,44.761c.37-.288,1.507-1.114,3.484-2.813a11.392,11.392,0,0,1,3.224-9.736L32.16,21.6A11.419,11.419,0,0,1,41.9,18.378c3.526-4.1,5.647-7.344,6.478-9.909.756-2.332.438-4.088-1-5.526C46.231,1.8,44.421,1.071,39.659,4.325a.958.958,0,0,1-1.081-1.581c3.127-2.136,7.105-4.2,10.149-1.155L63.415,16.275c2.01,2.01,2.473,4.5,1.416,7.628-.982,2.9-3.372,6.5-7.3,10.991A11.355,11.355,0,0,1,54.21,43.65L43.6,54.262a11.387,11.387,0,0,1-8.754,3.32,63.821,63.821,0,0,1-5.3,4.22c-4.382,3.076-9.523,5.461-13.318,1.665l-1.084-1.084a.958.958,0,1,1,1.354-1.354c1.166.933,2.475,3.819,7.484,1.759a6.046,6.046,0,0,1-2.451-1.49l-7.373-7.374a6.053,6.053,0,0,1-1.694-5.271A13.271,13.271,0,0,1,6.2,50.738L13.163,57.7a.958.958,0,0,1-1.354,1.354L1.536,48.78C-1.5,45.74.55,41.77,2.678,38.65ZM63.017,23.289c.811-2.4.508-4.2-.956-5.659L50.693,6.263c-.043,4.227-3.9,9.267-6.714,12.621A11.357,11.357,0,0,1,48.322,21.6l5.888,5.888a11.344,11.344,0,0,1,2.908,4.948c3.147-3.735,5.084-6.738,5.9-9.146ZM42.243,52.907,52.855,42.3a9.519,9.519,0,0,0,0-13.454l-5.888-5.888a9.524,9.524,0,0,0-13.454,0L22.9,33.566a9.449,9.449,0,0,0-2.782,6.727,9.632,9.632,0,0,0,3.172,7.117l3.336-3.336-.39-.39a4.8,4.8,0,0,1,0-6.781L36.851,26.291a4.8,4.8,0,0,1,6.781,0l5.888,5.888a4.8,4.8,0,0,1,0,6.781L38.907,49.571a4.8,4.8,0,0,1-6.781,0l-.39-.39L28.4,52.517l.39.39a9.519,9.519,0,0,0,13.454,0Zm-7.094-7.14-2.06,2.06.39.39a2.883,2.883,0,0,0,4.073,0L48.165,37.6a2.882,2.882,0,0,0,0-4.072l-5.888-5.888a2.882,2.882,0,0,0-4.072,0L27.593,38.257a2.883,2.883,0,0,0,0,4.072l.39.39,2.06-2.06a3.611,3.611,0,0,1,5.107,5.107ZM33.8,44.412a1.7,1.7,0,1,0-2.4-2.4l-8.179,8.179a1.7,1.7,0,0,0,2.4,2.4ZM15.508,52.569l7.373,7.374a4.144,4.144,0,0,0,5.276.489c1.3-.894,2.7-1.97,4.23-3.264a11.72,11.72,0,0,1-5.342-3.3l-.074.074a3.611,3.611,0,1,1-5.107-5.107l.074-.074a11.7,11.7,0,0,1-3.109-4.733c-1.012.85-1.976,1.618-2.873,2.287a4.144,4.144,0,0,0-.448,6.25Z" transform="translate(0.001 -0.052)"/>
    </g>
  </g>
</svg>
