<svg xmlns="http://www.w3.org/2000/svg" width="89" height="89" viewBox="0 0 89 89">
  <g id="Group_1184036" data-name="Group 1184036" transform="translate(0.41)">
    <circle id="Ellipse_12154" data-name="Ellipse 12154" cx="44.5" cy="44.5" r="44.5" transform="translate(-0.41)" fill="#95c072"/>
    <g id="Group_1184035" data-name="Group 1184035" transform="translate(15 15)">
      <path id="Path_1049407" data-name="Path 1049407" d="M183.983,32.018l-1.41-15.58a9.821,9.821,0,0,0-19.568.057l-1.316,15.55a.127.127,0,0,0,.217.1l6.032-6.032a6.681,6.681,0,0,0,.918-1.146.323.323,0,0,1,.5-.053,3.725,3.725,0,0,1,1.091,2.634v.581a14.423,14.423,0,0,1-.477,3.678l-.276,1.046a.415.415,0,0,0,.4.52H175.6a.415.415,0,0,0,.4-.52l-.276-1.046a14.423,14.423,0,0,1-.477-3.678v-.581a3.725,3.725,0,0,1,1.091-2.634.323.323,0,0,1,.5.053,6.681,6.681,0,0,0,.918,1.146l6.006,6.006A.127.127,0,0,0,183.983,32.018Z" transform="translate(-142.75 -6.622)" fill="#c86d36"/>
      <path id="Path_1049408" data-name="Path 1049408" d="M299.285,265.58a8.192,8.192,0,0,1-5.615-9.446.111.111,0,0,0-.109-.134h-8.086a2.473,2.473,0,0,0-1.775,4.2l.035.035a5.288,5.288,0,0,1,.8,6.461l-.814,1.357a.111.111,0,0,0,.023.141,27.133,27.133,0,0,1,3.955,4.24l1.412,1.882q.748,1,1.534,1.961a.112.112,0,0,0,.149.022l1.053-.7a9.016,9.016,0,0,1,9.034-.562l3.606,1.8a.233.233,0,0,0,.188.009,6.669,6.669,0,0,0,4.264-6.22v-1.9a.233.233,0,0,0-.164-.223Z" transform="translate(-249.843 -226.015)" fill="#c86d36"/>
      <path id="Path_1049409" data-name="Path 1049409" d="M17.15,265.58a8.192,8.192,0,0,0,5.615-9.446.111.111,0,0,1,.109-.134H30.96a2.473,2.473,0,0,1,1.775,4.2l-.035.035a5.288,5.288,0,0,0-.8,6.461l.814,1.357a.111.111,0,0,1-.023.141,27.134,27.134,0,0,0-3.955,4.24l-1.412,1.882q-.748,1-1.534,1.961a.112.112,0,0,1-.149.022l-1.053-.7a9.016,9.016,0,0,0-9.034-.562l-3.606,1.8a.233.233,0,0,1-.188.009,6.669,6.669,0,0,1-4.263-6.22v-1.9a.233.233,0,0,1,.164-.223Z" transform="translate(-6.622 -226.015)" fill="#c86d36"/>
      <path id="Path_1049410" data-name="Path 1049410" d="M195.148,416.159l1.477,2.955a.119.119,0,0,0,.107.066h6.277a.119.119,0,0,0,.115-.152l-3.206-11.081a.119.119,0,0,0-.115-.086H190.28a.119.119,0,0,0-.115.086l-3.206,11.081a.119.119,0,0,0,.115.152h6.277a.119.119,0,0,0,.107-.066l1.477-2.955A.119.119,0,0,1,195.148,416.159Z" transform="translate(-165.056 -360.088)" fill="#c86d36"/>
      <g id="Group_1184034" data-name="Group 1184034" transform="translate(1.759 1.06)">
        <path id="Path_1049411" data-name="Path 1049411" d="M281.912,33.389l-1.41-15.58a9.824,9.824,0,0,0-7.893-8.755,9.8,9.8,0,0,1,3.208,6.412l1.208,13.354,4.67,4.67a.127.127,0,0,0,.217-.1Z" transform="translate(-242.438 -9.054)" fill="#ac5e2e"/>
        <path id="Path_1049412" data-name="Path 1049412" d="M346.191,352.264l-4.521-1.395v1.172q0,.107,0,.212a5.215,5.215,0,0,1-7.562,4.443l-.493-.246a9.017,9.017,0,0,0-8.237.088l1.152,1.536q.748,1,1.534,1.961a.112.112,0,0,0,.149.022l1.053-.7a9.016,9.016,0,0,1,9.034-.562l3.606,1.8a.233.233,0,0,0,.188.009,6.669,6.669,0,0,0,4.264-6.22v-1.9a.233.233,0,0,0-.164-.223Z" transform="translate(-289.023 -310.833)" fill="#ac5e2e"/>
        <path id="Path_1049413" data-name="Path 1049413" d="M39.335,260.235l.035-.035a2.473,2.473,0,0,0-1.775-4.2h-2.2a2.392,2.392,0,0,1-.706,1.857l-.035.035a5.288,5.288,0,0,0-.8,6.461l.23.384a1.489,1.489,0,0,1-.258,1.852,27.134,27.134,0,0,0-3.136,3.5l-1.412,1.882q-.361.48-.73.954a1.493,1.493,0,0,1-2.007.327,9.016,9.016,0,0,0-9.034-.562l-2.492,1.246a6.665,6.665,0,0,0,3.383,2.908.233.233,0,0,0,.188-.009l3.606-1.8a9.016,9.016,0,0,1,9.034.562l1.053.7a.112.112,0,0,0,.149-.022q.787-.964,1.534-1.961l1.412-1.882a27.138,27.138,0,0,1,3.955-4.24.111.111,0,0,0,.023-.141l-.814-1.357a5.287,5.287,0,0,1,.8-6.461Z" transform="translate(-15.016 -227.076)" fill="#ac5e2e"/>
        <path id="Path_1049414" data-name="Path 1049414" d="M187.594,484.5l-.634,2.19a.119.119,0,0,0,.115.153h6.277a.119.119,0,0,0,.107-.066L194.6,484.5Z" transform="translate(-166.816 -428.811)" fill="#ac5e2e"/>
        <path id="Path_1049415" data-name="Path 1049415" d="M267.44,419.027l-3.206-11.081a.119.119,0,0,0-.115-.086H260.2l2.073,7.164a1.418,1.418,0,0,1-1.362,1.812H259.8l1.138,2.277a.119.119,0,0,0,.107.066h6.277a.119.119,0,0,0,.115-.152Z" transform="translate(-231.131 -361.148)" fill="#ac5e2e"/>
      </g>
      <path id="Path_1049416" data-name="Path 1049416" d="M154.771,26.345a1.01,1.01,0,0,0,1.135-.2l6.032-6.032a7.581,7.581,0,0,0,.594-.67,2.827,2.827,0,0,1,.416,1.483v.581a13.555,13.555,0,0,1-.448,3.454l-.276,1.046a1.293,1.293,0,0,0,1.25,1.623h5.507a1.293,1.293,0,0,0,1.25-1.623l-.276-1.046a13.555,13.555,0,0,1-.448-3.454v-.581a2.828,2.828,0,0,1,.416-1.483,7.6,7.6,0,0,0,.594.67l6.006,6.006a1.006,1.006,0,0,0,1.713-.8l-1.409-15.58A10.7,10.7,0,0,0,160.56,1.588a.879.879,0,1,0,.922,1.5,8.944,8.944,0,0,1,13.595,6.811L176.3,23.409l-4.54-4.54a5.8,5.8,0,0,1-.8-1,1.2,1.2,0,0,0-1.864-.2,4.573,4.573,0,0,0-1.348,3.255v.581a15.309,15.309,0,0,0,.506,3.9l.122.464h-4.3l.122-.464a15.315,15.315,0,0,0,.506-3.9v-.581a4.573,4.573,0,0,0-1.348-3.255,1.2,1.2,0,0,0-1.864.2,5.8,5.8,0,0,1-.8,1l-4.579,4.579,1.143-13.5a8.947,8.947,0,0,1,1.513-4.272.878.878,0,1,0-1.453-.988A10.709,10.709,0,0,0,155.509,9.8l-1.317,15.551A1.009,1.009,0,0,0,154.771,26.345Z" transform="translate(-136.129 0)"/>
      <path id="Path_1049417" data-name="Path 1049417" d="M185.871,141.179l-.035.408a.879.879,0,0,0,1.751.148l.035-.408a.879.879,0,0,0-1.751-.148Z" transform="translate(-164.067 -123.933)"/>
      <path id="Path_1049418" data-name="Path 1049418" d="M190.109,108.754l.07-.83a.879.879,0,1,0-1.751-.148l-.07.83a.879.879,0,0,0,1.751.148Z" transform="translate(-166.293 -94.442)"/>
      <path id="Path_1049419" data-name="Path 1049419" d="M292.059,43.861a.878.878,0,1,0-1.261,1.223,5.953,5.953,0,0,1,.472.55.878.878,0,0,0,1.4-1.06A7.682,7.682,0,0,0,292.059,43.861Z" transform="translate(-256.518 -38.488)"/>
      <path id="Path_1049420" data-name="Path 1049420" d="M229.937,29.5a5.918,5.918,0,0,1,.693-.211.878.878,0,0,0-.407-1.709,7.649,7.649,0,0,0-.9.274.879.879,0,0,0,.614,1.646Z" transform="translate(-201.958 -24.328)"/>
      <path id="Path_1049421" data-name="Path 1049421" d="M307.655,74.382c-.023-.253-.059-.508-.106-.757a.879.879,0,1,0-1.726.331c.037.192.065.389.082.584l.014.155a.879.879,0,0,0,1.75-.158Z" transform="translate(-269.989 -64.372)"/>
      <path id="Path_1049422" data-name="Path 1049422" d="M263.113,29.34a.879.879,0,1,0,.594-1.654,7.659,7.659,0,0,0-.9-.263.878.878,0,0,0-.386,1.714A5.921,5.921,0,0,1,263.113,29.34Z" transform="translate(-231.076 -24.192)"/>
      <path id="Path_1049423" data-name="Path 1049423" d="M310.867,107.062a.879.879,0,0,0-1.75.158l.075.83a.879.879,0,0,0,1.75-.158Z" transform="translate(-272.907 -93.817)"/>
      <path id="Path_1049424" data-name="Path 1049424" d="M202.734,46.323a.879.879,0,0,0,1.229-.186,5.954,5.954,0,0,1,.465-.556.879.879,0,0,0-1.277-1.207,7.739,7.739,0,0,0-.6.721A.879.879,0,0,0,202.734,46.323Z" transform="translate(-178.672 -38.933)"/>
      <path id="Path_1049425" data-name="Path 1049425" d="M191.3,74.322c-.042.233-.073.472-.094.711l-.017.2a.879.879,0,0,0,1.751.148l.017-.2c.016-.184.04-.368.072-.548a.879.879,0,0,0-1.729-.311Z" transform="translate(-168.789 -64.978)"/>
      <path id="Path_1049426" data-name="Path 1049426" d="M312.939,139.723a.879.879,0,0,0-.8.954l.037.408a.879.879,0,0,0,1.75-.158l-.037-.408A.88.88,0,0,0,312.939,139.723Z" transform="translate(-275.58 -123.355)"/>
      <path id="Path_1049427" data-name="Path 1049427" d="M459.908,372.293a.878.878,0,1,0,.518-1.679l-.409-.126a.878.878,0,1,0-.518,1.679Z" transform="translate(-405.131 -327.059)"/>
      <path id="Path_1049428" data-name="Path 1049428" d="M342.321,275.356c-.045-.246-.081-.5-.108-.747a.879.879,0,0,0-1.747.186c.031.293.074.587.126.876a.879.879,0,1,0,1.729-.315Z" transform="translate(-300.583 -241.751)"/>
      <path id="Path_1049429" data-name="Path 1049429" d="M370.906,332.674c-.193-.16-.381-.33-.561-.5a.879.879,0,0,0-1.221,1.263c.211.2.433.4.659.591a.878.878,0,1,0,1.124-1.35Z" transform="translate(-325.652 -293.046)"/>
      <path id="Path_1049430" data-name="Path 1049430" d="M427.383,361.339a.878.878,0,0,0,.58,1.1l.784.242a.878.878,0,0,0,.518-1.679l-.783-.242A.879.879,0,0,0,427.383,361.339Z" transform="translate(-377.29 -318.469)"/>
      <path id="Path_1049431" data-name="Path 1049431" d="M350.057,307.412a.879.879,0,0,0,1.517-.886c-.126-.216-.246-.44-.356-.665a.879.879,0,0,0-1.578.772C349.769,306.9,349.909,307.159,350.057,307.412Z" transform="translate(-308.607 -269.6)"/>
      <path id="Path_1049432" data-name="Path 1049432" d="M397.292,350.385a.878.878,0,1,0-.719,1.6c.268.12.543.232.819.332a.878.878,0,1,0,.6-1.651C397.757,350.583,397.521,350.488,397.292,350.385Z" transform="translate(-349.665 -309.277)"/>
      <path id="Path_1049433" data-name="Path 1049433" d="M302.384,261.046l-5.247-1.619a.878.878,0,1,0-.518,1.679l4.792,1.479V264a5.831,5.831,0,0,1-3.444,5.294l-3.343-1.671a9.917,9.917,0,0,0-9.915.617l-.471.314c-.356-.447-.716-.913-1.075-1.392-.453-.6-.824-1.1-1.411-1.882a28.062,28.062,0,0,0-3.6-3.949l.486-.811a6.167,6.167,0,0,0-.928-7.534l-.032-.032a1.531,1.531,0,0,1-.329-1.714,1.584,1.584,0,0,1,1.479-.989h7.2a9.073,9.073,0,0,0,6.354,9.541l.249.077a.878.878,0,0,0,.518-1.679l-.249-.077a7.284,7.284,0,0,1-5.013-8.431.99.99,0,0,0-.969-1.189H278.83a3.352,3.352,0,0,0-2.4,5.7l.038.038a4.373,4.373,0,0,1,1.259,2.58,4.434,4.434,0,0,1-.6,2.808l-.814,1.358a.988.988,0,0,0,.2,1.257,26.292,26.292,0,0,1,3.826,4.1l1.412,1.883c.521.693,1.044,1.363,1.555,1.989a.987.987,0,0,0,1.318.2l1.053-.7a8.155,8.155,0,0,1,8.154-.507l3.606,1.8a1.113,1.113,0,0,0,.9.043,7.6,7.6,0,0,0,4.825-7.04v-1.9A1.106,1.106,0,0,0,302.384,261.046Z" transform="translate(-243.198 -219.394)"/>
      <path id="Path_1049434" data-name="Path 1049434" d="M123.814,332.169c-.18.174-.369.344-.561.5a.879.879,0,1,0,1.124,1.35c.226-.188.447-.387.659-.591a.879.879,0,0,0-1.221-1.263Z" transform="translate(-108.536 -293.044)"/>
      <path id="Path_1049435" data-name="Path 1049435" d="M145.794,305.459a.879.879,0,0,0-1.175.4c-.11.226-.23.45-.356.665a.879.879,0,0,0,1.517.886c.148-.253.288-.516.418-.78a.878.878,0,0,0-.4-1.175Z" transform="translate(-127.259 -269.602)"/>
      <path id="Path_1049436" data-name="Path 1049436" d="M156.628,273.827a.879.879,0,0,0-.967.781c-.026.248-.063.5-.108.747a.878.878,0,1,0,1.729.314c.053-.29.1-.584.126-.875A.878.878,0,0,0,156.628,273.827Z" transform="translate(-137.322 -241.75)"/>
      <path id="Path_1049437" data-name="Path 1049437" d="M95.736,350.385c-.229.1-.465.2-.7.284a.879.879,0,0,0,.6,1.651c.276-.1.551-.212.819-.332a.878.878,0,1,0-.719-1.6Z" transform="translate(-83.394 -309.277)"/>
      <path id="Path_1049438" data-name="Path 1049438" d="M64.365,360.758l-.784.242a.879.879,0,1,0,.518,1.679l.784-.242a.879.879,0,0,0-.518-1.679Z" transform="translate(-55.587 -318.469)"/>
      <path id="Path_1049439" data-name="Path 1049439" d="M35.653,370.489l-.409.126a.879.879,0,1,0,.518,1.679l.409-.126a.878.878,0,1,0-.518-1.679Z" transform="translate(-30.568 -327.059)"/>
      <path id="Path_1049440" data-name="Path 1049440" d="M22.821,266.34a26.3,26.3,0,0,1,3.827-4.1.988.988,0,0,0,.2-1.257l-.814-1.357a4.434,4.434,0,0,1-.6-2.808,4.373,4.373,0,0,1,1.259-2.58l.039-.039a3.352,3.352,0,0,0-2.4-5.7H16.251a.99.99,0,0,0-.97,1.188,7.284,7.284,0,0,1-5.013,8.431L.784,261.046A1.106,1.106,0,0,0,0,262.108V264a7.6,7.6,0,0,0,4.825,7.04,1.114,1.114,0,0,0,.9-.042l3.606-1.8a8.156,8.156,0,0,1,8.154.507l1.053.7a.986.986,0,0,0,1.318-.2c.51-.625,1.034-1.294,1.556-1.989C21.973,267.473,22.4,266.9,22.821,266.34ZM20,267.168c-.36.479-.72.945-1.075,1.392l-.471-.314a9.918,9.918,0,0,0-9.914-.617L5.2,269.3A5.83,5.83,0,0,1,1.757,264v-1.421l9.03-2.786h0a9.073,9.073,0,0,0,6.354-9.541h7.2a1.584,1.584,0,0,1,1.479.989,1.533,1.533,0,0,1-.331,1.717l-.029.029a6.166,6.166,0,0,0-.928,7.534l.486.811a28.062,28.062,0,0,0-3.6,3.949Z" transform="translate(0 -219.394)"/>
      <path id="Path_1049441" data-name="Path 1049441" d="M194.145,401.082a1,1,0,0,0-.959-.721h-3.354a.878.878,0,0,0,0,1.757h2.784l2.767,9.562h-4.8l-1.268-2.535a1,1,0,0,0-1.785,0l-1.268,2.535h-4.8l2.767-9.562h1.5a.878.878,0,0,0,0-1.757h-2.069a1,1,0,0,0-.958.72L179.5,412.162a1,1,0,0,0,.958,1.275h6.277a.992.992,0,0,0,.892-.552l.8-1.6.8,1.6a.992.992,0,0,0,.892.552h6.277a1,1,0,0,0,.958-1.275Z" transform="translate(-158.44 -353.467)"/>
      <path id="Path_1049442" data-name="Path 1049442" d="M278.368,460.793l.228.788a.878.878,0,0,0,1.688-.488l-.228-.788a.878.878,0,1,0-1.688.488Z" transform="translate(-245.733 -405.83)"/>
      <path id="Path_1049443" data-name="Path 1049443" d="M270.883,428.607a.878.878,0,0,0-1.688.488l.228.788a.878.878,0,0,0,1.688-.488Z" transform="translate(-237.634 -377.844)"/>
      <path id="Path_1049444" data-name="Path 1049444" d="M218.068,459.706a.879.879,0,0,0-1.088.6l-.228.788a.879.879,0,0,0,1.688.488l.228-.788A.879.879,0,0,0,218.068,459.706Z" transform="translate(-191.333 -405.83)"/>
      <path id="Path_1049445" data-name="Path 1049445" d="M227.613,429.883l.228-.788a.879.879,0,1,0-1.688-.488l-.228.788a.878.878,0,0,0,1.688.488Z" transform="translate(-199.432 -377.844)"/>
    </g>
  </g>
</svg>
