<svg xmlns="http://www.w3.org/2000/svg" width="91" height="91" viewBox="0 0 91 91">
  <g id="Group_1184033" data-name="Group 1184033" transform="translate(-200.051 -3799)">
    <circle id="Ellipse_12158" data-name="Ellipse 12158" cx="45.5" cy="45.5" r="45.5" transform="translate(200.051 3799)" fill="#4c4b48"/>
    <g id="Group_1184032" data-name="Group 1184032" transform="translate(210.925 3813)">
      <path id="Path_1049389" data-name="Path 1049389" d="M28,44H38a1,1,0,0,1,1,1v6H25V45a1,1,0,0,1,1-1Z" fill="#7d7d7d"/>
      <path id="Path_1049390" data-name="Path 1049390" d="M9,37v7H5V37Z" fill="#7d7d7d"/>
      <path id="Path_1049391" data-name="Path 1049391" d="M59,43v1H55V37h4v6Z" fill="#7d7d7d"/>
      <path id="Path_1049392" data-name="Path 1049392" d="M37,51l-.62,2.49A1.992,1.992,0,0,1,34.44,55H29.56a1.992,1.992,0,0,1-1.94-1.51L27,51Z" fill="#ffc634"/>
      <path id="Path_1049393" data-name="Path 1049393" d="M36,44H28s0-4,4-4S36,44,36,44Z" fill="#ffc634"/>
      <path id="Path_1049394" data-name="Path 1049394" d="M25,51h2l.62,2.49A1.992,1.992,0,0,0,29.56,55h4.88a1.992,1.992,0,0,0,1.94-1.51L37,51H48.51a5.993,5.993,0,0,0,4.25-1.76l.42-.42A5.731,5.731,0,0,0,54,47.8V59a4,4,0,0,1-4,4H14a4,4,0,0,1-4-4V47.8a5.731,5.731,0,0,0,.82,1.02l.42.42A5.993,5.993,0,0,0,15.49,51Z" fill="#a67c52"/>
      <g id="Group_1184030" data-name="Group 1184030">
        <path id="Path_1049395" data-name="Path 1049395" d="M54,47.8V50a4,4,0,0,1-4,4H41.657a4,4,0,0,0-2.828,1.172l-1.657,1.657A4,4,0,0,1,34.343,58H29.657a4,4,0,0,1-2.828-1.172l-1.657-1.657A4,4,0,0,0,22.343,54H14a4,4,0,0,1-4-4V47.8a5.731,5.731,0,0,0,.82,1.02l.42.42A6.008,6.008,0,0,0,15.489,51H27l.62,2.49A1.992,1.992,0,0,0,29.552,55H34.44a2,2,0,0,0,1.942-1.518L37,51H48.51a6.011,6.011,0,0,0,4.251-1.761l.419-.419A5.731,5.731,0,0,0,54,47.8Z" fill="#8c6239"/>
        <path id="Path_1049396" data-name="Path 1049396" d="M5,38v5L2.6,41.2A4,4,0,0,1,1,38V33.08A4,4,0,0,0,2.6,36.2Z" fill="#8c6239"/>
        <path id="Path_1049397" data-name="Path 1049397" d="M60.52,14.41c.1,2.29-4.7,4.87-6.26,7.7a3.868,3.868,0,0,1-.82-2.34,5.277,5.277,0,0,1,.76-2.56c2.79-4.2,5.56-3.28,5.92-4.79v-.01a12.655,12.655,0,0,0,.31-2.52Z" fill="#8c6239"/>
        <path id="Path_1049398" data-name="Path 1049398" d="M59,38a20.238,20.238,0,0,0,3.21-4.31A6.066,6.066,0,0,0,63,31v5c0,3-4,7-4,7Z" fill="#8c6239"/>
      </g>
      <path id="Path_1049399" data-name="Path 1049399" d="M54.26,22.11C56.58,25.28,63,26.96,63,31a6.066,6.066,0,0,1-.79,2.69c-2.2-3.11-8.33-4.78-8.74-8.52l-.03-.67V19.77a3.868,3.868,0,0,0,.82,2.34Z" fill="#a67c52"/>
      <path id="Path_1049400" data-name="Path 1049400" d="M60.12,12.41C59.04,8.51,51.2,6,45.07,6,34.98,6,39.02,6.99,30,13c-5.63,3.75-15.55,7.11-22.2,9.1C3.81,23.3,1.06,28.89,1,33.08V28.21c0-4.2,2.77-9.9,6.8-11.11C14.45,15.11,24.37,11.75,30,8c9.02-6.01,4.98-7,15.07-7,7.16,0,15.2,3.41,15.35,8.5l.01.39a12.655,12.655,0,0,1-.31,2.52Z" fill="#a67c52"/>
      <path id="Path_1049401" data-name="Path 1049401" d="M53.23,29.58A4.859,4.859,0,0,1,55,33V44.42a6.193,6.193,0,0,1-1,3.38,5.731,5.731,0,0,1-.82,1.02l-.42.42A5.993,5.993,0,0,1,48.51,51H39V45a1,1,0,0,0-1-1H36s0-4-4-4-4,4-4,4H26a1,1,0,0,0-1,1v6H15.49a5.993,5.993,0,0,1-4.25-1.76l-.42-.42A5.731,5.731,0,0,1,10,47.8a6.193,6.193,0,0,1-1-3.38V33a4.859,4.859,0,0,1,1.77-3.42A5.933,5.933,0,0,1,14.83,28H49.17A5.933,5.933,0,0,1,53.23,29.58Z" fill="#a67c52"/>
      <path id="Path_1049402" data-name="Path 1049402" d="M52.37,33.142v1.191a.667.667,0,0,1-1.2.4l-2-2.666A.667.667,0,0,1,49.7,31h.524a2.142,2.142,0,0,1,2.142,2.142Z" fill="#c69c6d"/>
      <g id="Group_1184031" data-name="Group 1184031">
        <path id="Path_1049403" data-name="Path 1049403" d="M58.761,24.526A19.917,19.917,0,0,1,55.5,22.038a20.08,20.08,0,0,1,2.633-2.727c1.783-1.636,3.468-3.182,3.391-4.921l-.1-4.91H61.42V9.47C61.253,3.81,52.833,0,45.072,0H45c-6.795,0-7.554.487-9.987,2.758a39.052,39.052,0,0,1-5.57,4.41c-5.419,3.613-14.919,6.876-21.935,8.977C3.085,17.471,0,23.568,0,28.211V38a5.022,5.022,0,0,0,2,4l2,1.5V44a1,1,0,0,0,1,1H8.028A7.149,7.149,0,0,0,9,48.078V59a5.006,5.006,0,0,0,5,5H50a5.006,5.006,0,0,0,5-5V48.078A7.153,7.153,0,0,0,55.972,45H59a1,1,0,0,0,1-1v-.6c1.013-1.072,4-4.481,4-7.4V31c0-3-2.663-4.768-5.239-6.474Zm.623,11.551A1,1,0,0,0,59,36H56V33a5.785,5.785,0,0,0-2.089-4.148A6.9,6.9,0,0,0,49.165,27H14.835a6.9,6.9,0,0,0-4.746,1.852A5.785,5.785,0,0,0,8,33v3H5a.986.986,0,0,0-.656.258L3.2,35.4a3.012,3.012,0,0,1-1.194-2.347c.067-3.911,2.642-8.963,6.079-9.993,7.146-2.141,16.846-5.479,22.47-9.229A40.64,40.64,0,0,0,36.38,9.219C38.435,7.3,38.758,7,44.977,7h.1C50.756,7,57.68,9.249,59,12.308a6.857,6.857,0,0,1-.692.31,9.719,9.719,0,0,0-4.98,4.106,6.028,6.028,0,0,0-.888,3.33v4.478l.026.751c.3,2.675,2.784,4.32,5.186,5.911a18.278,18.278,0,0,1,3.356,2.6,18.263,18.263,0,0,1-1.629,2.285ZM56.777,17.838a28.689,28.689,0,0,0-2.322,2.317c-.007-.048-.007-.1-.012-.147v-.242h-.018a4.137,4.137,0,0,1,.612-2,7.783,7.783,0,0,1,4.028-3.3c.149-.061.3-.125.453-.192l0,.176c.039.832-1.439,2.188-2.743,3.384Zm-48.692.223c7.146-2.141,16.846-5.479,22.47-9.229A40.64,40.64,0,0,0,36.38,4.22C38.435,2.3,38.758,2,44.977,2h.1c6.68,0,14.214,3.1,14.347,7.526C56.242,6.459,49.6,5,45.072,5H45c-6.8,0-7.554.487-9.987,2.758a39.052,39.052,0,0,1-5.57,4.41c-5.419,3.613-14.919,6.876-21.935,8.977a9.758,9.758,0,0,0-5.149,4.367c.824-3.3,3-6.636,5.723-7.451ZM3.2,40.4A3.012,3.012,0,0,1,2,38V37l2,1.5V41ZM6,38H8v5H6ZM50,62H14a3,3,0,0,1-3-3V50.371A6.948,6.948,0,0,0,15.485,52h5.732a1,1,0,1,0,0-2H15.485a4.971,4.971,0,0,1-3.535-1.463l-.42-.421A5.188,5.188,0,0,1,10,44.422V33a3.832,3.832,0,0,1,1.456-2.689A4.916,4.916,0,0,1,14.835,29h34.33a4.913,4.913,0,0,1,3.379,1.312A3.829,3.829,0,0,1,54,33V44.422a5.187,5.187,0,0,1-1.531,3.695l-.418.418A4.97,4.97,0,0,1,48.515,50H40V45a2,2,0,0,0-2-2H36.9A4.686,4.686,0,0,0,32,39a4.686,4.686,0,0,0-4.9,4H26a2,2,0,0,0-2,2v6a1,1,0,0,0,1,1h1.22l.432,1.728A3,3,0,0,0,29.562,56h4.877a3,3,0,0,0,2.91-2.272L37.78,52H48.514A6.95,6.95,0,0,0,53,50.371V59a3,3,0,0,1-3,3ZM26,50V45H38v5Zm9.72,2-.31,1.242a1,1,0,0,1-.972.758H29.561a1,1,0,0,1-.971-.758L28.28,52Zm-6.564-9A2.682,2.682,0,0,1,32,41a2.682,2.682,0,0,1,2.844,2ZM56,43V38h2v5Zm6-7c0,1.287-.992,2.954-2,4.3V38.4a22.409,22.409,0,0,0,2-2.446Zm-.118-4.163a25.1,25.1,0,0,0-3.122-2.311c-2.111-1.4-4.1-2.72-4.3-4.387l-.005-1.34a23.859,23.859,0,0,0,3.2,2.4C59.89,27.673,62,29.071,62,31A3.335,3.335,0,0,1,61.882,31.837Z" fill="#352727"/>
        <path id="Path_1049404" data-name="Path 1049404" d="M25,33a1,1,0,0,0-1-1H22a1,1,0,0,0,0,2h2A1,1,0,0,0,25,33Z" fill="#352727"/>
        <path id="Path_1049405" data-name="Path 1049405" d="M18,32H16a3,3,0,0,0-3,3v5a1,1,0,0,0,2,0V35a1,1,0,0,1,1-1h2a1,1,0,0,0,0-2Z" fill="#352727"/>
        <path id="Path_1049406" data-name="Path 1049406" d="M36,46H28a1,1,0,0,0,0,2h8a1,1,0,0,0,0-2Z" fill="#352727"/>
      </g>
    </g>
  </g>
</svg>
