<svg xmlns="http://www.w3.org/2000/svg" width="89" height="89" viewBox="0 0 89 89">
  <g id="Group_1184039" data-name="Group 1184039" transform="translate(0.41)">
    <circle id="Ellipse_12155" data-name="Ellipse 12155" cx="44.5" cy="44.5" r="44.5" transform="translate(-0.41)" fill="#95c072"/>
    <g id="Group_1184038" data-name="Group 1184038" transform="translate(17 14)">
      <path id="Path_1049446" data-name="Path 1049446" d="M28.1,14.8V59.6A3.372,3.372,0,0,0,31.5,63h25a3.372,3.372,0,0,0,3.4-3.4V41a3.415,3.415,0,0,0-3.8-3.4c-.4,0-.7.1-1.1.1-7.4,0-13.5-7-13.5-15.7a19.857,19.857,0,0,1,1-6,3.4,3.4,0,0,0-3.2-4.6H31.4a3.351,3.351,0,0,0-3.3,3.4" transform="translate(-4.1 -1)" fill="#c8d7ee"/>
      <path id="Path_1049447" data-name="Path 1049447" d="M46,33.6a13.647,13.647,0,0,0-3.3,5.3L34.6,63h-3a3.372,3.372,0,0,1-3.4-3.4V14.8a3.372,3.372,0,0,1,3.4-3.4h7.9A3.423,3.423,0,0,1,42.7,16a16.8,16.8,0,0,0-1,6A16.9,16.9,0,0,0,46,33.6" transform="translate(-4.1 -1)" fill="#b1cae9"/>
      <path id="Path_1049448" data-name="Path 1049448" d="M40,11.4A3.368,3.368,0,0,1,42.6,16a16.8,16.8,0,0,0-1,6c0,8.7,6,15.7,13.5,15.7a4.1,4.1,0,0,0,1.1-.1A3.472,3.472,0,0,1,60,41V59.5a3.372,3.372,0,0,1-3.4,3.4h-25a3.372,3.372,0,0,1-3.4-3.4V56.8" transform="translate(-4.1 -1)" fill="none" stroke="#184e72" stroke-linecap="round" stroke-linejoin="round" stroke-miterlimit="10" stroke-width="2.067"/>
      <path id="Path_1049449" data-name="Path 1049449" d="M40,32.1c3.1,5.8,8.7,9.7,15.1,9.7h.7V58.9H32.3V56.8" transform="translate(-4.1 -1)" fill="none" stroke="#184e72" stroke-linecap="round" stroke-linejoin="round" stroke-miterlimit="10" stroke-width="2.067" stroke-dasharray="1.033 4.133"/>
      <path id="Path_1049450" data-name="Path 1049450" d="M35.9,4.4V49.2a3.372,3.372,0,0,1-3.4,3.4H7.5a3.372,3.372,0,0,1-3.4-3.4V30.7a3.415,3.415,0,0,1,3.8-3.4c.4,0,.7.1,1.1.1,7.4,0,13.5-7,13.5-15.7a19.857,19.857,0,0,0-1-6,3.331,3.331,0,0,1,3-4.7h7.9a3.458,3.458,0,0,1,3.5,3.4" transform="translate(-4.1 -1)" fill="#e3eaf6"/>
      <path id="Path_1049451" data-name="Path 1049451" d="M35.9,4.4V49.2a3.372,3.372,0,0,1-3.4,3.4H7.5a3.372,3.372,0,0,1-3.4-3.4V48.1A31.91,31.91,0,0,0,32.4,16.5V4.5A3.372,3.372,0,0,0,29,1.1h3.6a3.263,3.263,0,0,1,3.3,3.3" transform="translate(-4.1 -1)" fill="#c8d7ee"/>
      <g id="Group_1184037" data-name="Group 1184037">
        <path id="Path_1049452" data-name="Path 1049452" d="M35.9,4.4V49.2a3.372,3.372,0,0,1-3.4,3.4H7.5a3.372,3.372,0,0,1-3.4-3.4V30.7a3.415,3.415,0,0,1,3.8-3.4c.4,0,.7.1,1.1.1,7.4,0,13.5-7,13.5-15.7a19.857,19.857,0,0,0-1-6,3.331,3.331,0,0,1,3-4.7h7.9a3.458,3.458,0,0,1,3.5,3.4Z" transform="translate(-4.1 -1)" fill="none" stroke="#184e72" stroke-linecap="round" stroke-linejoin="round" stroke-miterlimit="10" stroke-width="2.067"/>
        <path id="Path_1049453" data-name="Path 1049453" d="M8.2,48.5v-17h.7c9.7,0,17.6-8.9,17.6-19.9a20.522,20.522,0,0,0-1-6.5h6.2V48.5Z" transform="translate(-4.1 -1)" fill="none" stroke="#184e72" stroke-linecap="round" stroke-linejoin="round" stroke-miterlimit="10" stroke-width="2.067" stroke-dasharray="1.033 4.133"/>
      </g>
    </g>
  </g>
</svg>
