<svg xmlns="http://www.w3.org/2000/svg" width="89" height="89" viewBox="0 0 89 89">
  <g id="Group_1184043" data-name="Group 1184043" transform="translate(0.41)">
    <circle id="Ellipse_12156" data-name="Ellipse 12156" cx="44.5" cy="44.5" r="44.5" transform="translate(-0.41)" fill="#95c072"/>
    <g id="Group_1184042" data-name="Group 1184042" transform="translate(17 16)">
      <g id="Group_1184040" data-name="Group 1184040" transform="translate(0.829 0.829)">
        <path id="Path_1049454" data-name="Path 1049454" d="M271.868,58.864H260.554a2.216,2.216,0,0,1-2.209-2.048L254.705,8.862A1.266,1.266,0,0,1,255.968,7.5h14.093a1.473,1.473,0,0,1,1.473,1.473v6.24a5.3,5.3,0,0,0,4.047,5.15,1.483,1.483,0,0,1,1.145,1.548l-2.649,34.9A2.216,2.216,0,0,1,271.868,58.864Z" transform="translate(-227.597 -7.5)" fill="#678d98"/>
        <path id="Path_1049455" data-name="Path 1049455" d="M374.446,21.91,371.8,56.816a2.217,2.217,0,0,1-2.21,2.048h-3.212a2.217,2.217,0,0,0,2.21-2.048l2.648-34.905a1.483,1.483,0,0,0-1.144-1.548,5.3,5.3,0,0,1-4.048-5.149V8.973A1.472,1.472,0,0,0,364.569,7.5h3.212a1.472,1.472,0,0,1,1.473,1.473v6.24a5.3,5.3,0,0,0,4.048,5.149,1.483,1.483,0,0,1,1.144,1.548Z" transform="translate(-325.317 -7.5)" fill="#537983"/>
        <path id="Path_1049456" data-name="Path 1049456" d="M9.565,151.359v10.582a2.853,2.853,0,0,0,2.853,2.853H39.905a2.853,2.853,0,0,0,2.853-2.853V125.418a2.853,2.853,0,0,0-2.853-2.853H31.111a2.861,2.861,0,0,0-2.847,2.667c-.88,12.128-7.7,21.812-16.343,23.318a2.849,2.849,0,0,0-2.356,2.809Z" transform="translate(-9.565 -109.842)" fill="#01d0fb"/>
        <path id="Path_1049457" data-name="Path 1049457" d="M258.431,125.414v36.523a2.853,2.853,0,0,1-2.853,2.854h-3.529a2.853,2.853,0,0,0,2.853-2.854V125.414a2.853,2.853,0,0,0-2.853-2.854h3.529A2.853,2.853,0,0,1,258.431,125.414Z" transform="translate(-225.238 -109.838)" fill="#01c0fa"/>
        <path id="Path_1049458" data-name="Path 1049458" d="M255.7,243.691a15.361,15.361,0,1,1-16.59-16.59,1.185,1.185,0,0,1,1.283,1.18v14.127h14.127A1.185,1.185,0,0,1,255.7,243.691Z" transform="translate(-201.207 -202.816)" fill="#ffe177"/>
        <path id="Path_1049459" data-name="Path 1049459" d="M361.839,366.863a15.367,15.367,0,0,1-17.473,13.925A15.367,15.367,0,0,0,357.5,366.863a1.185,1.185,0,0,0-1.181-1.283h4.339A1.185,1.185,0,0,1,361.839,366.863Z" transform="translate(-307.348 -325.988)" fill="#fece85"/>
        <path id="Path_1049460" data-name="Path 1049460" d="M38.547,12.842,36.37,30.389a2.984,2.984,0,1,0,5.922,0L40.116,12.842a.791.791,0,0,0-1.57,0Z" transform="translate(-33.386 -11.634)" fill="#678d98"/>
      </g>
      <g id="Group_1184041" data-name="Group 1184041">
        <path id="Path_1049461" data-name="Path 1049461" d="M40.263,457.02a.829.829,0,0,0,.829.829h3.317a.829.829,0,1,0,0-1.659H41.092A.829.829,0,0,0,40.263,457.02Z" transform="translate(-36.039 -405.751)"/>
        <path id="Path_1049462" data-name="Path 1049462" d="M174.409,457.85a.829.829,0,1,0,0-1.659h-3.317a.829.829,0,1,0,0,1.659Z" transform="translate(-151.666 -405.751)"/>
        <path id="Path_1049463" data-name="Path 1049463" d="M109.409,457.85a.829.829,0,1,0,0-1.659h-3.317a.829.829,0,1,0,0,1.659Z" transform="translate(-93.853 -405.751)"/>
        <path id="Path_1049464" data-name="Path 1049464" d="M305.268,40.03a.829.829,0,1,0,0,1.659h3.317a.829.829,0,0,0,0-1.659Z" transform="translate(-271.006 -35.604)"/>
        <path id="Path_1049465" data-name="Path 1049465" d="M57.686,40.241a2.019,2.019,0,0,0-1.481-.649h-5.2l1.436-18.917a.829.829,0,0,0-1.654-.125L49.343,39.592H42.907v-13.3a2.015,2.015,0,0,0-2.18-2.007,16.141,16.141,0,0,0-3.81.786V16.405a3.687,3.687,0,0,0-3.682-3.683h-1.6l-.5-6.637h1.327a.829.829,0,1,0,0-1.659H31l-.174-2.3a.436.436,0,0,1,.436-.469H45.359A.644.644,0,0,1,46,2.3V4.426H43.514a.829.829,0,0,0,0,1.659H46V8.543A6.107,6.107,0,0,0,50.683,14.5a.656.656,0,0,1,.514.679l-.121,1.586a.829.829,0,0,0,.764.89l.064,0a.83.83,0,0,0,.826-.766l.121-1.586a2.308,2.308,0,0,0-1.777-2.417,4.454,4.454,0,0,1-3.413-4.343V2.3a2.3,2.3,0,0,0-2.3-2.3H31.266a2.095,2.095,0,0,0-2.09,2.254l.795,10.468H24.44a3.708,3.708,0,0,0-3.674,3.436c-.6,8.325-4.1,15.692-9.342,19.706a.829.829,0,1,0,1.008,1.317c5.617-4.3,9.35-12.112,9.988-20.9a2.043,2.043,0,0,1,2.02-1.9h8.795a2.026,2.026,0,0,1,2.023,2.025v9.329A16.183,16.183,0,0,0,29.37,50.44h-.691a.829.829,0,1,0,0,1.659h2.2a16.278,16.278,0,0,0,3.449,2.532,2.025,2.025,0,0,1-1.091.322H5.747a2.026,2.026,0,0,1-2.023-2.025V42.346a2.015,2.015,0,0,1,1.668-1.991q.449-.078.9-.186V48.3a.829.829,0,1,0,1.659,0V39.667c.347-.126.691-.264,1.03-.416A.829.829,0,0,0,8.3,37.737c-.117.052-.235.1-.353.152V30.725a3.388,3.388,0,0,1,3.385-3.385h1.507a5.043,5.043,0,1,0,0-10.086h-.491l-1.9-15.32a1.62,1.62,0,0,0-3.216,0l-1.9,15.32H2.894a.829.829,0,1,0,0,1.659H5.126l-.071.569a3.813,3.813,0,1,0,7.568,0l-.071-.569h.285a3.385,3.385,0,1,1,0,6.769H11.331a5.049,5.049,0,0,0-5.043,5.043v7.732q-.587.159-1.181.264a3.671,3.671,0,0,0-3.042,3.625V52.928a3.687,3.687,0,0,0,3.682,3.683H33.235a3.7,3.7,0,0,0,2.72-1.2A16.189,16.189,0,0,0,51.384,53.67a.829.829,0,1,0-.955-1.356A14.532,14.532,0,1,1,40.863,25.94a.356.356,0,0,1,.386.354v2.031a12.1,12.1,0,0,0-2.679.486.829.829,0,1,0,.479,1.588,10.437,10.437,0,0,1,2.2-.412V40.422a.829.829,0,0,0,.829.829H52.511a10.458,10.458,0,0,1-.317,1.867.829.829,0,1,0,1.6.426,12.12,12.12,0,0,0,.377-2.293h2.03a.356.356,0,0,1,.354.385,14.4,14.4,0,0,1-3.424,8.213A.829.829,0,0,0,54.4,50.926a16.052,16.052,0,0,0,3.816-9.154,2.021,2.021,0,0,0-.527-1.53ZM10.978,19.686a2.155,2.155,0,1,1-4.276,0L8.839,2.445l1.837,14.809H9.669V15.626a.829.829,0,1,0-1.659,0v3.992a.829.829,0,1,0,1.659,0v-.705h1.213Z" transform="translate(-2.065 0)"/>
        <path id="Path_1049466" data-name="Path 1049466" d="M299.328,444.06a12.075,12.075,0,0,0,3.193,1.548.829.829,0,0,0,.5-1.583,10.413,10.413,0,0,1-2.754-1.335.829.829,0,1,0-.934,1.37Z" transform="translate(-266.138 -393.613)"/>
        <path id="Path_1049467" data-name="Path 1049467" d="M423.8,416.156a.829.829,0,0,0-1.153.212,10.52,10.52,0,0,1-2.088,2.242.829.829,0,1,0,1.036,1.295,12.177,12.177,0,0,0,2.417-2.6A.829.829,0,0,0,423.8,416.156Z" transform="translate(-374.008 -370.012)"/>
        <path id="Path_1049468" data-name="Path 1049468" d="M278.243,277.376a.829.829,0,1,0-.986-1.334,12.179,12.179,0,0,0-2.514,2.5.829.829,0,1,0,1.328.993,10.523,10.523,0,0,1,2.172-2.161Z" transform="translate(-244.446 -245.376)"/>
        <path id="Path_1049469" data-name="Path 1049469" d="M255.947,332.092a10.469,10.469,0,0,1,.461-3.027.829.829,0,1,0-1.585-.488,12.129,12.129,0,0,0-.534,3.506.829.829,0,0,0,.825.834h0A.829.829,0,0,0,255.947,332.092Z" transform="translate(-226.401 -291.726)"/>
        <path id="Path_1049470" data-name="Path 1049470" d="M261.713,396.132a.829.829,0,0,0,1.339-.979,10.428,10.428,0,0,1-1.426-2.709.829.829,0,0,0-1.565.549A12.089,12.089,0,0,0,261.713,396.132Z" transform="translate(-231.492 -348.558)"/>
        <path id="Path_1049471" data-name="Path 1049471" d="M364.179,454.737a10.442,10.442,0,0,1-3.009.561.829.829,0,0,0,.031,1.658h.032a12.1,12.1,0,0,0,3.487-.65.829.829,0,0,0-.54-1.568Z" transform="translate(-320.754 -404.417)"/>
      </g>
    </g>
  </g>
</svg>
