<svg xmlns="http://www.w3.org/2000/svg" width="111" height="111" viewBox="0 0 111 111">
  <g id="Group_1184260" data-name="Group 1184260" transform="translate(-203.925 -15838)">
    <circle id="Ellipse_12168" data-name="Ellipse 12168" cx="55.5" cy="55.5" r="55.5" transform="translate(203.925 15838)" fill="#f88e15"/>
    <g id="Briefcase_Girl" data-name="Briefcase Girl" transform="translate(227.668 15862)">
      <path id="Path_1049740" data-name="Path 1049740" d="M43,16h4v9H43Z" fill="#2946ed"/>
      <path id="Path_1049741" data-name="Path 1049741" d="M17,16h4v9H17Z" fill="#2946ed"/>
      <g id="Group_1184259" data-name="Group 1184259">
        <path id="Path_1049742" data-name="Path 1049742" d="M15,25h8v4H15Z" fill="#376cfb"/>
        <path id="Path_1049743" data-name="Path 1049743" d="M41,25h8v4H41Z" fill="#376cfb"/>
        <path id="Path_1049744" data-name="Path 1049744" d="M11.255,63A8,8,0,0,1,3.5,53.053L7.66,36.46l1.3,5.841A5.965,5.965,0,0,0,14.814,47H49.186a5.965,5.965,0,0,0,5.857-4.7l1.3-5.841L60.5,53.053A8,8,0,0,1,52.745,63Z" fill="#376cfb"/>
      </g>
      <path id="Path_1049745" data-name="Path 1049745" d="M14.814,47a5.965,5.965,0,0,1-5.858-4.7L6.813,32.651A3,3,0,0,1,9.741,29H54.259a3,3,0,0,1,2.928,3.652L55.043,42.3A5.965,5.965,0,0,1,49.186,47Z" fill="#4294ff"/>
      <path id="Path_1049746" data-name="Path 1049746" d="M32,52a3,3,0,0,1-3-3V42a3,3,0,0,1,6,0v7a3,3,0,0,1-3,3Z" fill="#2946ed"/>
      <path id="Path_1049747" data-name="Path 1049747" d="M42,16a9.01,9.01,0,0,0-9-9H31a9.01,9.01,0,0,0-9,9H16A15.017,15.017,0,0,1,31,1h2A15.017,15.017,0,0,1,48,16Z" fill="#376cfb"/>
      <circle id="Ellipse_12192" data-name="Ellipse 12192" cx="3" cy="3" r="3" transform="translate(29 39)" fill="#376cfb"/>
      <path id="Path_1049748" data-name="Path 1049748" d="M61.47,52.81l-4.1-16.36.79-3.58A4,4,0,0,0,54.26,28H50V25a1,1,0,0,0-1-1H48V17a1,1,0,0,0,1-1A16.021,16.021,0,0,0,33,0H31A16.021,16.021,0,0,0,15,16a1,1,0,0,0,1,1v7H15a1,1,0,0,0-1,1v3H9.74a4,4,0,0,0-3.9,4.87l.79,3.58L2.53,52.81A8.992,8.992,0,0,0,11.26,64H52.74a8.992,8.992,0,0,0,8.73-11.19ZM23,24H22V17a1,1,0,0,0,1-1,8.011,8.011,0,0,1,8-8h2a8.011,8.011,0,0,1,8,8,1,1,0,0,0,1,1v7H41a1,1,0,0,0-1,1v3H24V25A1,1,0,0,0,23,24Zm19,2h6v2H42Zm2-2V17h2v7ZM31,2h2A14.017,14.017,0,0,1,46.96,15H42.95A10.006,10.006,0,0,0,33,6H31a10.006,10.006,0,0,0-9.95,9H17.04A14.017,14.017,0,0,1,31,2ZM20,17v7H18V17Zm-4,9h6v2H16ZM8.18,30.75A1.976,1.976,0,0,1,9.74,30H54.26a2,2,0,0,1,1.95,2.43l-.84,3.81h-.01l-1.29,5.84A4.968,4.968,0,0,1,49.19,46H36V42a4,4,0,1,0-8,0v4H14.81a4.968,4.968,0,0,1-4.88-3.92L8.64,36.24H8.63l-.84-3.81a1.991,1.991,0,0,1,.39-1.68ZM30,45.441A3.925,3.925,0,0,0,32,46a3.978,3.978,0,0,0,2-.554V49a2,2,0,0,1-4,0ZM32,44a2,2,0,1,1,2-2A2,2,0,0,1,32,44ZM58.26,59.31A6.94,6.94,0,0,1,52.74,62H11.26a6.994,6.994,0,0,1-6.79-8.7L7.6,40.81l.38,1.71A6.958,6.958,0,0,0,14.81,48H28v1a4,4,0,1,0,8,0V48H49.19a6.96,6.96,0,0,0,6.83-5.48l.38-1.71L59.53,53.3a6.949,6.949,0,0,1-1.27,6.01Z" fill="#232328"/>
      <path id="Path_1049749" data-name="Path 1049749" d="M14,35H45v1a1,1,0,0,0,2,0V35h3a1,1,0,0,0,0-2H14a1,1,0,0,0,0,2Z" fill="#232328"/>
    </g>
  </g>
</svg>
